<svg xmlns="http://www.w3.org/2000/svg" xmlns:xlink="http://www.w3.org/1999/xlink" width="52" height="50" viewBox="0 0 52 50"><defs><path id="a" d="M792.106 815.314l-2.187-2.072-2.071 2.187-2.187-2.072 2.071-2.186-2.187-2.072 2.071-2.187 2.187 2.072 2.072-2.187 2.187 2.072-2.071 2.186 2.187 2.072z"/><path id="b" d="M799.225 818.026l-2.681-1.372.823-1.61 2.682 1.373z"/><path id="c" d="M802.149 826.378l-1.237 2.747-1.648-.741 1.237-2.748z"/><path id="d" d="M797.995 832.502h-3.012v-1.808h3.012z"/><path id="e" d="M789.1 831.49l-2.152-2.108 1.265-1.291 2.152 2.108z"/><path id="f" d="M785.603 827.49l-2.873-.905.544-1.724 2.873.906z"/><path id="g" d="M769.853 835.31l-2.027 2.227-1.337-1.216 2.027-2.228z"/><path id="h" d="M767.365 839.794l-.198 3.006-1.804-.118.198-3.006z"/><path id="i" d="M765.674 847.015l-2.843.997-.598-1.706 2.843-.997z"/><path id="j" d="M790.765 854.186l-9.037-4.556v-28.576l9.037 4.557zm-12.028-25.071l-1.382-1.165 1.94-2.304 1.383 1.164zm-4.174 4.63l-.919-1.558 2.595-1.53.919 1.557zm-3.078 21.05l-10.242-5.165v-28.576l10.242 5.164zm-14.252-7.377l-2.835-1.018.611-1.701 2.835 1.018zm24.495-27.569l-10.243 5.164-10.242-5.164L751 825.013V856l10.243-5.164L771.485 856l10.243-5.164L791.97 856v-30.986z"/><path id="k" d="M802.615 819.746l.385 2.988-1.793.23-.385-2.987z"/></defs><use xlink:href="#a" transform="translate(-751 -806)"/><use xlink:href="#b" transform="translate(-751 -806)"/><use xlink:href="#c" transform="translate(-751 -806)"/><use xlink:href="#d" transform="translate(-751 -806)"/><use xlink:href="#e" transform="translate(-751 -806)"/><use xlink:href="#f" transform="translate(-751 -806)"/><use xlink:href="#g" transform="translate(-751 -806)"/><use xlink:href="#h" transform="translate(-751 -806)"/><use xlink:href="#i" transform="translate(-751 -806)"/><use xlink:href="#j" transform="translate(-751 -806)"/><use xlink:href="#k" transform="translate(-751 -806)"/></svg>