<svg xmlns="http://www.w3.org/2000/svg" xmlns:xlink="http://www.w3.org/1999/xlink" width="26" height="50" viewBox="0 0 26 50"><defs><path id="a" d="M368.293 808.448c0-.014 0-.027.002-.042l.001-.022.006-.037.004-.026.008-.03a.668.668 0 0 1 .01-.031c.001-.008.005-.015.007-.023l.014-.035.009-.02c.005-.01.01-.023.018-.035.003-.007.008-.013.012-.02a.355.355 0 0 1 .02-.03c.005-.009.012-.017.018-.025l.017-.023a.233.233 0 0 1 .026-.028l.015-.017c.009-.01.02-.018.03-.027l.015-.014.03-.022.02-.014.028-.018.025-.015.024-.011a.63.63 0 0 1 .034-.016l.02-.008a.485.485 0 0 1 .04-.013l.023-.006.038-.009.03-.004a.515.515 0 0 1 .07-.006l.017-.001h.007c.011 0 .022 0 .033.002l.028.002a.53.53 0 0 1 .06.01l.025.005a.764.764 0 0 1 .034.01l.022.007a.44.44 0 0 1 .034.013l.02.009.032.016.021.01.027.017.023.015.011.009a.638.638 0 0 1 .11.102l.03.039.004.006a.579.579 0 0 1 .025.039l.006.01a.676.676 0 0 1 .02.04l.006.011a.533.533 0 0 1 .017.041l.003.01.014.04a.633.633 0 0 1-.438.781l-.037.008h.004l-.008.002a.751.751 0 0 1-.05.008l-.018.002a.504.504 0 0 1-.05.003h-.019a.521.521 0 0 1-.041-.002l-.023-.002a.831.831 0 0 1-.036-.006l-.026-.004-.03-.007a.668.668 0 0 1-.031-.01c-.007-.001-.015-.005-.022-.008a.673.673 0 0 1-.036-.013l-.019-.01a.427.427 0 0 1-.036-.017c-.006-.004-.013-.009-.02-.012a.36.36 0 0 1-.03-.02c-.01-.005-.017-.012-.025-.018l-.024-.018-.028-.025-.016-.016-.028-.03-.013-.015-.023-.03-.014-.02-.017-.028-.015-.026-.012-.024a.627.627 0 0 1-.015-.034l-.008-.02a.485.485 0 0 1-.013-.04l-.006-.023-.009-.038-.004-.03a.515.515 0 0 1-.006-.07l-.002-.017v-.006zm-8.036-.017a.317.317 0 1 1 .613.16.317.317 0 0 1-.613-.16zm20.039 41.932h-22.688v-40.206h22.688zm-1.196-43.584a39.19 39.19 0 0 0-1.969-.253c-.742-.075-1.492-.126-2.218-.176l-.086-.007a75.482 75.482 0 0 0-4.998-.167c-.519 0-.828.007-.83.007a35.882 35.882 0 0 0-.83-.007c-.965 0-2.897.022-4.999.167l-.086.006c-.726.05-1.476.102-2.218.176a41.78 41.78 0 0 0-1.969.253l-.096.015c-1.116.166-2.117.445-2.117 2.02v44.373c0 1.576 1 1.855 2.117 2.02l.1.016c.422.063 1.13.168 1.965.252.742.075 1.492.127 2.218.177l.086.006a75.7 75.7 0 0 0 4.998.167c.519 0 .829-.006.83-.006.003 0 .313.006.832.006a75.7 75.7 0 0 0 4.998-.167l.085-.006a71.31 71.31 0 0 0 2.219-.177c.834-.083 1.543-.189 1.966-.252l.1-.015c1.115-.166 2.116-.445 2.116-2.02v-44.373c0-1.576-1.001-1.855-2.117-2.02z"/></defs><use xlink:href="#a" transform="translate(-356 -806)"/></svg>