<svg xmlns="http://www.w3.org/2000/svg" xmlns:xlink="http://www.w3.org/1999/xlink" width="119" height="159" viewBox="0 0 119 159"><defs><path id="m2c2a" d="M305.564 5156c-1.98 0-3.713 1.733-3.713 3.714 0 1.98 1.732 3.712 3.713 3.712 1.98 0 3.712-1.732 3.712-3.712 0-1.98-1.732-3.713-3.712-3.713zm19.8 89.106c-1.98 0-3.712 1.732-3.712 3.712 0 1.98 1.733 3.713 3.713 3.713s3.712-1.732 3.712-3.713c0-1.98-1.732-3.712-3.712-3.712zm-9.9 0c-1.98 0-3.713 1.732-3.713 3.712 0 1.98 1.733 3.713 3.713 3.713s3.713-1.732 3.713-3.713c0-1.98-1.733-3.712-3.713-3.712zm-9.9 0c-1.98 0-3.713 1.732-3.713 3.712 0 1.98 1.732 3.713 3.713 3.713 1.98 0 3.712-1.732 3.712-3.713 0-1.98-1.732-3.712-3.712-3.712zm19.8-22.276c1.98 0 3.713-1.733 3.713-3.713s-1.732-3.713-3.712-3.713c-1.98 0-3.713 1.733-3.713 3.713s1.733 3.713 3.713 3.713zm-9.9 0c1.98 0 3.713-1.733 3.713-3.713s-1.733-3.713-3.713-3.713-3.713 1.733-3.713 3.713 1.733 3.713 3.713 3.713zm-9.9 0c1.98 0 3.712-1.733 3.712-3.713s-1.732-3.713-3.712-3.713c-1.98 0-3.713 1.733-3.713 3.713s1.732 3.713 3.713 3.713zm19.8-29.702c1.98 0 3.713-1.733 3.713-3.713s-1.732-3.713-3.712-3.713c-1.98 0-3.713 1.733-3.713 3.713s1.733 3.713 3.713 3.713zm-9.9-7.426c-1.98 0-3.713 1.733-3.713 3.713s1.733 3.713 3.713 3.713 3.713-1.733 3.713-3.713-1.733-3.713-3.713-3.713zm-9.9 0c-1.98 0-3.713 1.733-3.713 3.713s1.732 3.713 3.713 3.713c1.98 0 3.712-1.733 3.712-3.713s-1.732-3.713-3.712-3.713zm19.8-22.276c1.98 0 3.713-1.732 3.713-3.712 0-1.98-1.732-3.713-3.712-3.713-1.98 0-3.713 1.732-3.713 3.713 0 1.98 1.733 3.712 3.713 3.712zm-9.9-7.425c-1.98 0-3.713 1.732-3.713 3.713 0 1.98 1.733 3.712 3.713 3.712s3.713-1.732 3.713-3.712c0-1.98-1.733-3.713-3.713-3.713zm45.79-27.227h27.227c1.485 0 2.475-.99 2.475-2.475s-.99-2.475-2.475-2.475h-27.227c-1.485 0-2.475.99-2.475 2.475s.99 2.475 2.475 2.475zm0-7.425h27.227c1.485 0 2.475-.99 2.475-2.475s-.99-2.475-2.475-2.475h-27.227c-1.485 0-2.475.99-2.475 2.475s.99 2.475 2.475 2.475zm-12.376 118.807c-1.485 0-2.475.99-2.475 2.475v9.9c0 1.485.99 2.475 2.475 2.475 1.486 0 2.476-.99 2.476-2.475v-9.9c0-1.485-.99-2.475-2.476-2.475zm9.901 0c-1.485 0-2.475.99-2.475 2.475v9.9c0 1.485.99 2.475 2.475 2.475s2.475-.99 2.475-2.475v-9.9c0-1.485-.99-2.475-2.475-2.475zm9.9 0c-1.485 0-2.475.99-2.475 2.475v9.9c0 1.485.99 2.475 2.476 2.475 1.485 0 2.475-.99 2.475-2.475v-9.9c0-1.485-.99-2.475-2.475-2.475zm9.901 0c-1.485 0-2.475.99-2.475 2.475v9.9c0 1.485.99 2.475 2.475 2.475s2.475-.99 2.475-2.475v-9.9c0-1.485-.99-2.475-2.475-2.475zm9.9 0c-1.484 0-2.474.99-2.474 2.475v9.9c0 1.485.99 2.475 2.475 2.475s2.475-.99 2.475-2.475v-9.9c0-1.485-.99-2.475-2.475-2.475zm-39.602-14.851c1.486 0 2.476-.99 2.476-2.475v-9.901c0-1.485-.99-2.475-2.476-2.475-1.485 0-2.475.99-2.475 2.475v9.9c0 1.486.99 2.476 2.475 2.476zm9.901 0c1.485 0 2.475-.99 2.475-2.475v-9.901c0-1.485-.99-2.475-2.475-2.475s-2.475.99-2.475 2.475v9.9c0 1.486.99 2.476 2.475 2.476zm9.9 0c1.486 0 2.476-.99 2.476-2.475v-9.901c0-1.485-.99-2.475-2.475-2.475-1.486 0-2.476.99-2.476 2.475v9.9c0 1.486.99 2.476 2.476 2.476zm9.901 0c1.485 0 2.475-.99 2.475-2.475v-9.901c0-1.485-.99-2.475-2.475-2.475s-2.475.99-2.475 2.475v9.9c0 1.486.99 2.476 2.475 2.476zm9.9 0c1.486 0 2.476-.99 2.476-2.475v-9.901c0-1.485-.99-2.475-2.475-2.475s-2.475.99-2.475 2.475v9.9c0 1.486.99 2.476 2.475 2.476zm-39.602-29.702c1.486 0 2.476-.99 2.476-2.475v-9.9c0-1.486-.99-2.476-2.476-2.476-1.485 0-2.475.99-2.475 2.475v9.9c0 1.486.99 2.476 2.475 2.476zm9.901 0c1.485 0 2.475-.99 2.475-2.475v-9.9c0-1.486-.99-2.476-2.475-2.476s-2.475.99-2.475 2.475v9.9c0 1.486.99 2.476 2.475 2.476zm9.9 0c1.486 0 2.476-.99 2.476-2.475v-9.9c0-1.486-.99-2.476-2.475-2.476-1.486 0-2.476.99-2.476 2.475v9.9c0 1.486.99 2.476 2.476 2.476zm9.901 0c1.485 0 2.475-.99 2.475-2.475v-9.9c0-1.486-.99-2.476-2.475-2.476s-2.475.99-2.475 2.475v9.9c0 1.486.99 2.476 2.475 2.476zm9.9 0c1.486 0 2.476-.99 2.476-2.475v-9.9c0-1.486-.99-2.476-2.475-2.476s-2.475.99-2.475 2.475v9.9c0 1.486.99 2.476 2.475 2.476zm-39.602-29.702c1.486 0 2.476-.99 2.476-2.475v-9.9c0-1.485-.99-2.475-2.476-2.475-1.485 0-2.475.99-2.475 2.475v9.9c0 1.485.99 2.475 2.475 2.475zm9.901 0c1.485 0 2.475-.99 2.475-2.475v-9.9c0-1.485-.99-2.475-2.475-2.475s-2.475.99-2.475 2.475v9.9c0 1.485.99 2.475 2.475 2.475zm9.9 0c1.486 0 2.476-.99 2.476-2.475v-9.9c0-1.485-.99-2.475-2.475-2.475-1.486 0-2.476.99-2.476 2.475v9.9c0 1.485.99 2.475 2.476 2.475zm9.901 0c1.485 0 2.475-.99 2.475-2.475v-9.9c0-1.485-.99-2.475-2.475-2.475s-2.475.99-2.475 2.475v9.9c0 1.485.99 2.475 2.475 2.475zm9.9 0c1.486 0 2.476-.99 2.476-2.475v-9.9c0-1.485-.99-2.475-2.475-2.475s-2.475.99-2.475 2.475v9.9c0 1.485.99 2.475 2.475 2.475zm9.901 94.056H294.425c-1.485 0-2.475-.99-2.475-2.476v-51.977h27.227c1.485 0 2.475-.99 2.475-2.476 0-1.485-.99-2.475-2.475-2.475H291.95v-24.751h19.801c1.485 0 2.476-.99 2.476-2.475s-.99-2.475-2.476-2.475h-19.8v-22.277c0-1.485.99-2.475 2.474-2.475h103.956c1.485 0 2.475.99 2.475 2.475v22.277h-66.828c-1.485 0-2.476.99-2.476 2.475s.99 2.475 2.476 2.475h66.828v24.751h-66.828c-1.485 0-2.476.99-2.476 2.475 0 1.486.99 2.476 2.476 2.476h66.828v24.751h-101.48c-1.485 0-2.475.99-2.475 2.475s.99 2.475 2.475 2.475h101.48v22.277c0 1.485-.99 2.475-2.475 2.475zm-99.995-146.529c.247-1.237 1.237-1.98 2.475-1.98h91.085c1.237 0 2.227.743 2.475 1.98l4.95 21.04c.495 2.227.99 4.702 1.238 6.93-.743 0-1.485-.248-2.228-.248H294.425c-.742 0-1.485.248-1.98.248.248-2.476.743-4.703 1.238-6.93zm107.42 35.147c0-5.197-.494-10.148-1.732-15.098l-4.95-21.039c-.743-3.465-3.713-5.94-7.178-5.94H300.86c-3.465 0-6.436 2.475-7.178 5.693l-4.95 21.039c-1.238 5.197-1.733 10.148-1.733 15.345v108.907c0 4.207 3.218 7.425 7.425 7.425h103.956c4.208 0 7.426-3.218 7.426-7.425v-108.907z"/><linearGradient id="m2c2b" x1="346.41" x2="405.81" y1="5106.5" y2="5274.67" gradientUnits="userSpaceOnUse"><stop offset="0" stop-color="#1176e8"/><stop offset="1" stop-color="#093b74"/></linearGradient></defs><g><g transform="translate(-287 -5106)"><use fill="url(#m2c2b)" xlink:href="#m2c2a"/></g></g></svg>