<svg xmlns="http://www.w3.org/2000/svg" xmlns:xlink="http://www.w3.org/1999/xlink" width="43" height="34" viewBox="0 0 43 34"><defs><path id="b7g5a" d="M604.88 1217a1.141 1.141 0 0 1-1.135 1.16h-37.266a1.141 1.141 0 0 1-1.137-1.136v-1.54h39.539zm-15.908 7.514h-7.72l.718-.94c.417-.555.643-1.23.643-1.925v-2.127h4.997v2.113c0 .694.226 1.37.643 1.925zm-4.18-22.165a.69.69 0 0 1 0 .967l-2.427 2.423a.676.676 0 0 1-.47.198.686.686 0 0 1-.47-.198.676.676 0 0 1 0-.939l2.423-2.427a.69.69 0 0 1 .944-.024zm.32-5.424a.728.728 0 1 1 0-1.455.728.728 0 0 1 0 1.455zm3.723 9.453a.68.68 0 0 1 0 .967l-2.423 2.424a.682.682 0 1 1-.967-.963l2.428-2.428a.686.686 0 0 1 .948 0zm-.587-2.48l-5.296 5.284a.676.676 0 0 1-.94 0 .676.676 0 0 1 0-.963l5.26-5.283a.68.68 0 0 1 .939.963zm15.497-11.302h-37.266a2.475 2.475 0 0 0-1.879.85 2.489 2.489 0 0 0-.62 1.653v21.925a2.503 2.503 0 0 0 2.499 2.498h14.773v2.113c0 .398-.128.785-.367 1.103l-1.54 2.048a.686.686 0 0 0 .545 1.094h10.448a.686.686 0 0 0 .545-1.094l-1.545-2.048a1.836 1.836 0 0 1-.371-1.103v-2.113h14.778a2.503 2.503 0 0 0 2.498-2.498v-21.925c0-1.38-1.118-2.5-2.498-2.503z"/></defs><g><g transform="translate(-564 -1192)"><use xlink:href="#b7g5a"/></g></g></svg>