<svg xmlns="http://www.w3.org/2000/svg" xmlns:xlink="http://www.w3.org/1999/xlink" width="21" height="36" viewBox="0 0 21 36"><defs><path id="6h4ea" d="M782.388 1193.128a.57.57 0 0 1 0-1.142h4.826a.57.57 0 0 1 0 1.142zm5.216 13.845a.57.57 0 0 1-.394.169.579.579 0 0 1-.393-.17l-1.803-1.802a.57.57 0 0 1 .787-.788l1.803 1.803a.567.567 0 0 1 0 .788zm-1.181 16.332h-3.244a1.15 1.15 0 0 1 0-2.295h3.244a1.15 1.15 0 0 1 0 2.295zm-3.984-18.501a.579.579 0 0 1 .788 0l3.936 3.936a.575.575 0 0 1-.787.787l-3.937-3.936a.579.579 0 0 1 0-.787zm-.44 2.554a.567.567 0 0 1 .787 0l1.803 1.803a.567.567 0 0 1 0 .788.567.567 0 0 1-.788 0l-1.803-1.803a.567.567 0 0 1 0-.788zm12.486-17.202v-.122h-.11a2.082 2.082 0 0 0-1.445-.583h-16.258c-.538 0-1.056.209-1.444.583a2.09 2.09 0 0 0-.662 1.511v31.24a2.098 2.098 0 0 0 2.106 2.095h16.258a2.086 2.086 0 0 0 1.551-.697c.354-.38.552-.878.555-1.397v-31.24a2.067 2.067 0 0 0-.551-1.39z"/></defs><g><g transform="translate(-774 -1189)"><use xlink:href="#6h4ea"/></g></g></svg>