<svg xmlns="http://www.w3.org/2000/svg" xmlns:xlink="http://www.w3.org/1999/xlink" width="37" height="28" viewBox="0 0 37 28"><defs><path id="el6wa" d="M670.783 1201.899a.565.565 0 1 1-1.127.096.565.565 0 0 1 1.126-.096zm.028 7.058a.594.594 0 0 1-1.188 0v-5.022a.594.594 0 0 1 1.188 0zm14.408-5.42c.11.109.173.256.176.41a.602.602 0 0 1-.176.41l-1.876 1.876a.594.594 0 0 1-.82-.82l1.877-1.876a.59.59 0 0 1 .827-.008zm2.667.451a.602.602 0 0 1 0 .82l-4.097 4.096a.598.598 0 0 1-.82-.82l4.097-4.096a.602.602 0 0 1 .82 0zm13.461 2.458a1.59 1.59 0 1 1-3.179.008 1.59 1.59 0 0 1 3.18-.008zm-15.718 2.904a.59.59 0 0 1 0-.819l1.876-1.876a.59.59 0 0 1 .82 0 .59.59 0 0 1 0 .82l-1.877 1.875a.59.59 0 0 1-.82.013zm-18.636-14.337v22.866c0 .55.21 1.078.586 1.48.41.441.986.694 1.59.696h32.514a2.18 2.18 0 0 0 2.18-2.176v-22.866a2.18 2.18 0 0 0-2.18-2.18h-32.51a2.18 2.18 0 0 0-2.18 2.18z"/></defs><g><g transform="translate(-667 -1192)"><use xlink:href="#el6wa"/></g></g></svg>