<svg xmlns="http://www.w3.org/2000/svg" viewBox="0 0 38 39"><defs><style>.cls-1{fill:none;stroke:#fff;stroke-miterlimit:10;stroke-width:2px;}</style></defs><title>6</title><g id="Layer_2" data-name="Layer 2"><g id="Layer_2-2" data-name="Layer 2"><path class="cls-1" d="M9,11V3a2,2,0,0,1,2-2H35a2,2,0,0,1,2,2V36a2,2,0,0,1-2,2H9"/><path class="cls-1" d="M35,16H13.64A1.64,1.64,0,0,1,12,14.69l-.44-2.14A2,2,0,0,0,9.67,11H2.53A1.53,1.53,0,0,0,1,12.53V36a2,2,0,0,0,2,2H35a2,2,0,0,0,2-2V18A2,2,0,0,0,35,16Z"/><line class="cls-1" x1="20" y1="11" x2="32" y2="11"/></g></g></svg>
