<svg xmlns="http://www.w3.org/2000/svg" xmlns:xlink="http://www.w3.org/1999/xlink" width="36" height="38" viewBox="0 0 36 38"><defs><path id="wm3va" d="M311.347 3613.747a1.174 1.174 0 1 1 0-2.348 1.174 1.174 0 0 1 0 2.348zm1.174 28.174h-8.217c-.791 0-1.52.26-2.108.7l-7.418 5.564c-.014.01-.02.013-.035.025a3.522 3.522 0 0 1-5.7-2.768v-2.347c0-.649-.525-1.174-1.174-1.174h-1.173a4.696 4.696 0 0 1-4.696-4.696v-21.13a4.696 4.696 0 0 1 4.696-4.696h19.956a1.174 1.174 0 0 1 0 2.348h-19.37a2.934 2.934 0 0 0-2.934 2.935v19.956a2.934 2.934 0 0 0 2.935 2.935h1.173a2.934 2.934 0 0 1 2.935 2.935v2.934a1.174 1.174 0 0 0 1.842.966c.002 0 .002 0 .003-.002l7.471-5.603.005-.003a5.845 5.845 0 0 1 3.592-1.227h7.63a2.934 2.934 0 0 0 2.935-2.935v-19.37a1.174 1.174 0 0 1 2.348 0v19.957a4.696 4.696 0 0 1-4.696 4.696zm-12.913-21.13a3.522 3.522 0 0 0-3.521 3.521 1.174 1.174 0 0 1-2.348 0 5.87 5.87 0 0 1 11.739 0 5.867 5.867 0 0 1-3.59 5.405c-.003.002-.003.005-.005.006-.646.261-1.1.894-1.1 1.633a1.173 1.173 0 0 1-2.348 0 4.11 4.11 0 0 1 2.52-3.791 3.52 3.52 0 0 0-1.347-6.774zm0 14.086a1.174 1.174 0 1 1 0 2.348 1.174 1.174 0 0 1 0-2.348z"/></defs><g><g transform="translate(-282 -3611)"><g><use fill="#fff" xlink:href="#wm3va"/></g></g></g></svg>