<svg xmlns="http://www.w3.org/2000/svg" xmlns:xlink="http://www.w3.org/1999/xlink" width="38" height="41" viewBox="0 0 38 41" fill='none'><defs><path id="nvw6a" d="M728 1298h12.7a2.3 2.3 0 0 0 2.3-2.3v-22.4a2.3 2.3 0 0 0-2.3-2.3h-31.39a2.31 2.31 0 0 0-2.31 2.31v22.39a2.3 2.3 0 0 0 2.3 2.3h3.7"/><path id="nvw6b" d="M714.52 1310c-.76 0-1.52-.76-1.52-1.52v-25.96c0-.76.76-1.52 1.52-1.52h11.96c.76 0 1.52.76 1.52 1.52v25.96c0 .76-.76 1.52-1.52 1.52z"/><path id="nvw6c" d="M719 1305h3"/><path id="nvw6d" d="M740 1283v4"/></defs><g><g transform="translate(-706 -1270)"><g><g><use xlink:href="#nvw6a"/><use stroke="#fff" stroke-miterlimit="50" stroke-width="2" xlink:href="#nvw6a"/></g><g><use xlink:href="#nvw6b"/><use stroke="#fff" stroke-miterlimit="50" stroke-width="2" xlink:href="#nvw6b"/></g><g><use stroke="#fff" stroke-miterlimit="50" stroke-width="2" xlink:href="#nvw6c"/></g><g><use stroke="#fff" stroke-miterlimit="50" stroke-width="2" xlink:href="#nvw6d"/></g></g></g></g></svg>