<svg xmlns="http://www.w3.org/2000/svg" xmlns:xlink="http://www.w3.org/1999/xlink" width="40" height="29" viewBox="0 0 40 29"><defs><path id="uwl7a" d="M712.597 1117.56c-.627-.35-.768-.62-.768-.7v-.11c0-.598.688-1.102 1.502-1.102h.2v2.104zm4.195 3.43c0 .576-.635 1.061-1.405 1.1v-2.062l.596.122c.669.374.809.67.809.731v.109zm-1.405-7.447a.928.928 0 0 0-1.856 0v.25h-.2c-1.852 0-3.358 1.326-3.358 2.957v.11c0 .943.63 1.75 1.873 2.403a.92.92 0 0 0 .243.086l.064.013c.016.004.03.011.046.015l1.333.272v2.449h-.2c-.816 0-1.505-.508-1.505-1.109a.928.928 0 0 0-1.856 0c0 1.635 1.507 2.964 3.36 2.964h.201v.344a.928.928 0 0 0 1.856 0v-.348c1.806-.046 3.26-1.355 3.26-2.96v-.108c0-.651-.332-1.602-1.911-2.434-.027-.013-.058-.019-.086-.03-.025-.01-.052-.019-.079-.028-.028-.009-.053-.024-.082-.03l-.056-.01-1.047-.216v-2.478c.773.04 1.41.522 1.41 1.095a.928.928 0 0 0 1.855 0c0-1.601-1.455-2.908-3.264-2.953v-.254z"/><path id="uwl7b" d="M711.682 1128.228a9.557 9.557 0 0 0 7.296-.947 9.552 9.552 0 0 0 4.49-5.83 9.561 9.561 0 0 0-2.253-9.061.928.928 0 0 0-1.358 1.265 7.72 7.72 0 0 1 1.819 7.314 7.71 7.71 0 0 1-3.623 4.704 7.709 7.709 0 0 1-5.887.764 7.707 7.707 0 0 1-4.705-3.623 7.713 7.713 0 0 1-.765-5.887 7.71 7.71 0 0 1 3.623-4.704 7.703 7.703 0 0 1 5.887-.764.929.929 0 0 0 .484-1.791 9.55 9.55 0 0 0-7.297.947 9.55 9.55 0 0 0-4.489 5.83 9.552 9.552 0 0 0 .949 7.295 9.55 9.55 0 0 0 5.83 4.488z"/><path id="uwl7c" d="M727.144 1127.463c0 .678-.266 1.318-.75 1.802a2.545 2.545 0 0 1-1.808.751l-24.531.001-8.699-11.07.885-1.126c.959 1.028 2.169 1.977 3.44 2.058.282.366.72.605 1.215.605a1.54 1.54 0 0 0 1.538-1.537 1.531 1.531 0 1 0-2.737-.951c-.462-.075-1.203-.447-2.286-1.664l2.733-3.48.009-.01 3.902-4.966h27.09v19.587zm-35.117-12.913c-1.446-2.077-1.716-7.145-.011-9.484.078-.108.138-.166.174-.195.819.432 2.23 4.551 2.276 7.116l-2.236 2.845c-.068-.095-.133-.181-.203-.282zm36.045-8.53h-28.468a.926.926 0 0 0-.73.356l-2.775 3.532c-.468-2.732-1.643-6.232-3.365-6.816-.38-.13-1.355-.302-2.218.88-2.197 3.014-1.836 9.02-.011 11.639.137.196.317.454.53.743l-1.588 2.02a.929.929 0 0 0 0 1.147l9.427 11.998a.926.926 0 0 0 .73.355l24.982-.001c1.176 0 2.284-.46 3.119-1.295a4.37 4.37 0 0 0 1.295-3.114v-20.516a.927.927 0 0 0-.928-.927z"/></defs><g><g transform="translate(-689 -1103)"><g><g><use fill="#fff" xlink:href="#uwl7a"/></g><g><use fill="#fff" xlink:href="#uwl7b"/></g><g><use fill="#fff" xlink:href="#uwl7c"/></g></g></g></g></svg>