<svg xmlns="http://www.w3.org/2000/svg" viewBox="0 0 38 42.5"><defs><style>.cls-1{fill:none;stroke:#fff;stroke-miterlimit:10;stroke-width:2px;}</style></defs><title>Asset 1</title><g id="Layer_2" data-name="Layer 2"><g id="Layer_2-2" data-name="Layer 2"><path class="cls-1" d="M30.91,25.32l6,10.54A.86.86,0,0,1,36,37.13l-4.34-.81a.86.86,0,0,0-1,.53L29,41a.86.86,0,0,1-1.55.11l-5-8.79-1-1.49a15,15,0,1,1,4.21-1.37"/><path class="cls-1" d="M7.09,25.32l-6,10.54A.86.86,0,0,0,2,37.13l4.34-.81a.86.86,0,0,1,1,.53L9,41a.86.86,0,0,0,1.55.11l6-10.58"/><path class="cls-1" d="M16.51,23.32,11,17.76a1.74,1.74,0,0,1,0-2.46l5.55-5.55"/><path class="cls-1" d="M20.89,9.75l5.55,5.55a1.74,1.74,0,0,1,0,2.46l-5.55,5.55"/></g></g></svg>
