<svg xmlns="http://www.w3.org/2000/svg" viewBox="0 0 38.1 34.76"><defs><style>.cls-1{fill:none;stroke:#fff;stroke-miterlimit:10;stroke-width:2px;}</style></defs><title>5</title><g id="Layer_2" data-name="Layer 2"><g id="Layer_2-2" data-name="Layer 2"><path class="cls-1" d="M15.05,31.05V23.21a4.5,4.5,0,0,1,4.5-4.5h0a4.5,4.5,0,0,1,4.5,4.5v7.84"/><circle class="cls-1" cx="19.05" cy="13.05" r="3"/><path class="cls-1" d="M16.69,31.83a13,13,0,0,1-4.84-1.95L8,33.38,4.86,30.31,8.3,26.4a12.94,12.94,0,0,1-2-4.79l-5.2-.23L1,17l5.2-.34a12.94,12.94,0,0,1,2-4.83L4.64,8,7.73,4.85l3.92,3.43a13,13,0,0,1,4.8-2l.23-5.19,4.4,0,.34,5.18a13,13,0,0,1,4.84,1.95L30.1,4.63l3.14,3.08L29.8,11.62a12.94,12.94,0,0,1,2,4.79l5.2.23,0,4.39-5.2.34a12.94,12.94,0,0,1-2,4.83L33.46,30l-3.08,3.14-3.91-3.43a13,13,0,0,1-4.8,2"/></g></g></svg>
