<svg xmlns="http://www.w3.org/2000/svg" viewBox="0 0 38 31.26"><defs><style>.cls-1{fill:none;stroke:#fff;stroke-miterlimit:10;stroke-width:2px;}</style></defs><title>3</title><g id="Layer_2" data-name="Layer 2"><g id="Layer_2-2" data-name="Layer 2"><path class="cls-1" d="M19,30.26h0a6,6,0,0,1-6-6V19a6,6,0,0,1,6-6h0a6,6,0,0,1,6,6v5.27A6,6,0,0,1,19,30.26Z"/><circle class="cls-1" cx="19" cy="5" r="4"/><path class="cls-1" d="M1,24V19a6,6,0,0,1,6-6H7a6,6,0,0,1,6,6v5"/><circle class="cls-1" cx="7" cy="5" r="4"/><path class="cls-1" d="M25,24V19a6,6,0,0,1,6-6h0a6,6,0,0,1,6,6v5"/><circle class="cls-1" cx="31" cy="5" r="4"/></g></g></svg>
