<svg xmlns="http://www.w3.org/2000/svg" xmlns:xlink="http://www.w3.org/1999/xlink" width="716" height="54" viewBox="0 0 716 54"><defs><path id="a" d="M444.617 687.566l1.141.348c.66.202 1.03.9.829 1.559l-4.232 13.841c-.201.66-.9 1.03-1.558.829l-1.141-.349c-.66-.201-1.03-.9-.829-1.558l5.773-6.122c.201-.659-.642-8.75.017-8.548z"/><path id="b" d="M450.996 697.765l-.35 1.14c-.2.66-.898 1.03-1.558.83l-4.433-3.846c-.66-.202-10.438-1.286-10.237-1.945l.35-1.14c.2-.66.899-1.031 1.558-.83l8.329 3.915c.659.201 6.542 1.217 6.34 1.876z"/><path id="c" d="M401.165 663.435a3.822 3.822 0 0 1 1.505 2.534l.217 1.508.002.013a3.855 3.855 0 0 1-3.263 4.347 3.855 3.855 0 0 1-4.359-3.262l-.217-1.508-.002-.014a3.825 3.825 0 0 1 .73-2.842 3.826 3.826 0 0 1 2.533-1.504 3.826 3.826 0 0 1 2.854.728zm-9.058 4.031l.003.024 4.681 3.67c.536 3.721-.463 4.152 3.26 3.616a6.828 6.828 0 0 0 5.78-7.7l-.004-.023-3.157-1.084c-.26-1.803 1.733-3.821.275-4.912a6.775 6.775 0 0 0-5.058-1.289 6.826 6.826 0 0 0-5.78 7.698z"/><path id="d" d="M487.505 697.456c.985.296 3.194 4.035 3.68 4.941l.72 1.343c.002.004 3.25 1.647 3.253 1.651.994 1.87-2.96 2.56-4.826 3.561-1.87 1.003-6.093 2.746-7.097.875l1.165-3.792-.007-.012a3.825 3.825 0 0 1-.286-2.92 3.826 3.826 0 0 1 1.866-2.28c.907-.485.548-3.664 1.532-3.367zm-5.734 9.961l.012.022.72 1.343a6.827 6.827 0 0 0 9.233 2.787 6.828 6.828 0 0 0 2.798-9.212l-.011-.021-.72-1.343a6.778 6.778 0 0 0-4.04-3.306 6.775 6.775 0 0 0-5.193.52 6.826 6.826 0 0 0-2.799 9.21z"/><path id="e" d="M334.585 677.915l-.408-1.12a1.248 1.248 0 0 1 .746-1.6l13.6-4.95c.649-.236-10.192 7.348-12.338 8.416a1.248 1.248 0 0 1-1.6-.746z"/><path id="f" d="M339.972 670.273s1.405-3.9 1.64-3.252l4.95 13.601a1.248 1.248 0 0 1-.745 1.6l-1.121.408a1.248 1.248 0 0 1-1.6-.746z"/><path id="g" d="M380.482 691.315c.305.982-1.559 4.905-2.039 5.814l-.71 1.348c-.002.004.452 3.616.45 3.62-.994 1.87-3.777-1.022-5.651-2.01-1.877-.99-5.684-3.516-4.694-5.394l3.795-1.155.007-.012a3.825 3.825 0 0 1 2.26-1.87 3.826 3.826 0 0 1 2.934.272c.91.48 3.344-1.595 3.648-.613zm-11.464.817l-.012.021-.71 1.349a6.827 6.827 0 0 0 2.851 9.213 6.828 6.828 0 0 0 9.203-2.832l.01-.02.711-1.349a6.778 6.778 0 0 0 .482-5.197 6.775 6.775 0 0 0-3.334-4.015 6.826 6.826 0 0 0-9.201 2.83z"/><path id="h" d="M609.617 687.566l1.141.348c.66.202 1.03.9.829 1.559l-4.232 13.841c-.201.66-.9 1.03-1.558.829l-1.141-.349c-.66-.201-1.03-.9-.829-1.558l5.773-6.122c.201-.659-.642-8.75.017-8.548z"/><path id="i" d="M615.996 697.765l-.35 1.14c-.2.66-.898 1.03-1.558.83l-4.433-3.846c-.66-.202-10.438-1.286-10.237-1.945l.35-1.14c.2-.66.899-1.031 1.558-.83l8.329 3.915c.659.201 6.542 1.217 6.34 1.876z"/><path id="j" d="M566.165 663.435a3.822 3.822 0 0 1 1.505 2.534l.217 1.508.002.013a3.855 3.855 0 0 1-3.263 4.347 3.855 3.855 0 0 1-4.359-3.262l-.217-1.508-.002-.014a3.825 3.825 0 0 1 .73-2.842 3.826 3.826 0 0 1 2.533-1.504 3.826 3.826 0 0 1 2.854.728zm-9.058 4.031l.003.024 4.681 3.67c.536 3.721-.463 4.152 3.26 3.616a6.828 6.828 0 0 0 5.78-7.7l-.004-.023-3.157-1.084c-.26-1.803 1.733-3.821.275-4.912a6.775 6.775 0 0 0-5.058-1.289 6.826 6.826 0 0 0-5.78 7.698z"/><path id="k" d="M652.505 697.456c.985.296 3.194 4.035 3.68 4.941l.72 1.343c.002.004 3.25 1.647 3.253 1.651.994 1.87-2.96 2.56-4.826 3.561-1.87 1.003-6.093 2.746-7.097.875l1.165-3.792-.007-.012a3.825 3.825 0 0 1-.286-2.92 3.826 3.826 0 0 1 1.866-2.28c.907-.485.548-3.664 1.532-3.367zm-5.734 9.961l.012.022.72 1.343a6.827 6.827 0 0 0 9.233 2.787 6.828 6.828 0 0 0 2.798-9.212l-.011-.021-.72-1.343a6.778 6.778 0 0 0-4.04-3.306 6.775 6.775 0 0 0-5.193.52 6.826 6.826 0 0 0-2.799 9.21z"/><path id="l" d="M499.585 677.915l-.408-1.12a1.248 1.248 0 0 1 .746-1.6l13.6-4.95c.649-.236-10.192 7.348-12.338 8.416a1.248 1.248 0 0 1-1.6-.746z"/><path id="m" d="M504.972 670.273s1.405-3.9 1.64-3.252l4.95 13.601a1.248 1.248 0 0 1-.745 1.6l-1.121.408a1.248 1.248 0 0 1-1.6-.746z"/><path id="n" d="M545.482 691.315c.305.982-1.559 4.905-2.039 5.814l-.71 1.348c-.002.004.452 3.616.45 3.62-.994 1.87-3.777-1.022-5.651-2.01-1.877-.99-5.684-3.516-4.694-5.394l3.795-1.155.007-.012a3.825 3.825 0 0 1 2.26-1.87 3.826 3.826 0 0 1 2.934.272c.91.48 3.344-1.595 3.648-.613zm-11.464.817l-.012.021-.71 1.349a6.827 6.827 0 0 0 2.851 9.213 6.828 6.828 0 0 0 9.203-2.832l.01-.02.711-1.349a6.778 6.778 0 0 0 .482-5.197 6.775 6.775 0 0 0-3.334-4.015 6.826 6.826 0 0 0-9.201 2.83z"/><path id="o" d="M788.617 687.566l1.141.348c.66.202 1.03.9.829 1.559l-4.232 13.841c-.201.66-.9 1.03-1.558.829l-1.141-.349c-.66-.201-1.03-.9-.829-1.558l5.773-6.122c.201-.659-.642-8.75.017-8.548z"/><path id="p" d="M794.996 697.765l-.35 1.14c-.2.66-.898 1.03-1.558.83l-4.433-3.846c-.66-.202-10.438-1.286-10.237-1.945l.35-1.14c.2-.66.899-1.031 1.558-.83l8.329 3.915c.659.201 6.542 1.217 6.34 1.876z"/><path id="q" d="M745.165 663.435a3.822 3.822 0 0 1 1.505 2.534l.217 1.508.002.013a3.855 3.855 0 0 1-3.263 4.347 3.855 3.855 0 0 1-4.359-3.262l-.217-1.508-.002-.014a3.825 3.825 0 0 1 .73-2.842 3.826 3.826 0 0 1 2.533-1.504 3.826 3.826 0 0 1 2.854.728zm-9.058 4.031l.003.024 4.681 3.67c.536 3.721-.463 4.152 3.26 3.616a6.828 6.828 0 0 0 5.78-7.7l-.004-.023-3.157-1.084c-.26-1.803 1.733-3.821.275-4.912a6.775 6.775 0 0 0-5.058-1.289 6.826 6.826 0 0 0-5.78 7.698z"/><path id="r" d="M831.505 697.456c.985.296 3.194 4.035 3.68 4.941l.72 1.343c.002.004 3.25 1.647 3.253 1.651.994 1.87-2.96 2.56-4.826 3.561-1.87 1.003-6.093 2.746-7.097.875l1.165-3.792-.007-.012a3.825 3.825 0 0 1-.286-2.92 3.826 3.826 0 0 1 1.866-2.28c.907-.485.548-3.664 1.532-3.367zm-5.734 9.961l.012.022.72 1.343a6.827 6.827 0 0 0 9.233 2.787 6.828 6.828 0 0 0 2.798-9.212l-.011-.021-.72-1.343a6.778 6.778 0 0 0-4.04-3.306 6.775 6.775 0 0 0-5.193.52 6.826 6.826 0 0 0-2.799 9.21z"/><path id="s" d="M678.585 677.915l-.408-1.12a1.248 1.248 0 0 1 .746-1.6l13.6-4.95c.649-.236-10.192 7.348-12.338 8.416a1.248 1.248 0 0 1-1.6-.746z"/><path id="t" d="M683.972 670.273s1.405-3.9 1.64-3.252l4.95 13.601a1.248 1.248 0 0 1-.745 1.6l-1.121.408a1.248 1.248 0 0 1-1.6-.746z"/><path id="u" d="M724.482 691.315c.305.982-1.559 4.905-2.039 5.814l-.71 1.348c-.002.004.452 3.616.45 3.62-.994 1.87-3.777-1.022-5.651-2.01-1.877-.99-5.684-3.516-4.694-5.394l3.795-1.155.007-.012a3.825 3.825 0 0 1 2.26-1.87 3.826 3.826 0 0 1 2.934.272c.91.48 3.344-1.595 3.648-.613zm-11.464.817l-.012.021-.71 1.349a6.827 6.827 0 0 0 2.851 9.213 6.828 6.828 0 0 0 9.203-2.832l.01-.02.711-1.349a6.778 6.778 0 0 0 .482-5.197 6.775 6.775 0 0 0-3.334-4.015 6.826 6.826 0 0 0-9.201 2.83z"/><path id="v" d="M954.617 687.566l1.141.348c.66.202 1.03.9.829 1.559l-4.232 13.841c-.201.66-.9 1.03-1.558.829l-1.141-.349c-.66-.201-1.03-.9-.829-1.558l5.773-6.122c.201-.659-.642-8.75.017-8.548z"/><path id="w" d="M960.996 697.765l-.35 1.14c-.2.66-.898 1.03-1.558.83l-4.433-3.846c-.66-.202-10.438-1.286-10.237-1.945l.35-1.14c.2-.66.899-1.031 1.558-.83l8.329 3.915c.659.201 6.542 1.217 6.34 1.876z"/><path id="x" d="M911.165 663.435a3.822 3.822 0 0 1 1.505 2.534l.217 1.508.002.013a3.855 3.855 0 0 1-3.263 4.347 3.855 3.855 0 0 1-4.359-3.262l-.217-1.508-.002-.014a3.825 3.825 0 0 1 .73-2.842 3.826 3.826 0 0 1 2.533-1.504 3.826 3.826 0 0 1 2.854.728zm-9.058 4.031l.003.024 4.681 3.67c.536 3.721-.463 4.152 3.26 3.616a6.828 6.828 0 0 0 5.78-7.7l-.004-.023-3.157-1.084c-.26-1.803 1.733-3.821.275-4.912a6.775 6.775 0 0 0-5.058-1.289 6.826 6.826 0 0 0-5.78 7.698z"/><path id="y" d="M997.505 697.456c.985.296 3.194 4.035 3.68 4.941l.72 1.343c.002.004 3.25 1.647 3.253 1.651.994 1.87-2.96 2.56-4.826 3.561-1.87 1.003-6.093 2.746-7.097.875l1.165-3.792-.007-.012a3.825 3.825 0 0 1-.286-2.92 3.826 3.826 0 0 1 1.866-2.28c.907-.485.548-3.664 1.532-3.367zm-5.734 9.961l.012.022.72 1.343a6.827 6.827 0 0 0 9.233 2.787 6.828 6.828 0 0 0 2.798-9.212l-.011-.021-.72-1.343a6.778 6.778 0 0 0-4.04-3.306 6.775 6.775 0 0 0-5.193.52 6.826 6.826 0 0 0-2.799 9.21z"/><path id="z" d="M844.585 677.915l-.408-1.12a1.248 1.248 0 0 1 .746-1.6l13.6-4.95c.649-.236-10.192 7.348-12.338 8.416a1.248 1.248 0 0 1-1.6-.746z"/><path id="A" d="M849.972 670.273s1.405-3.9 1.64-3.252l4.95 13.601a1.248 1.248 0 0 1-.745 1.6l-1.121.408a1.248 1.248 0 0 1-1.6-.746z"/><path id="B" d="M890.482 691.315c.305.982-1.559 4.905-2.039 5.814l-.71 1.348c-.002.004.452 3.616.45 3.62-.994 1.87-3.777-1.022-5.651-2.01-1.877-.99-5.684-3.516-4.694-5.394l3.795-1.155.007-.012a3.825 3.825 0 0 1 2.26-1.87 3.826 3.826 0 0 1 2.934.272c.91.48 3.344-1.595 3.648-.613zm-11.464.817l-.012.021-.71 1.349a6.827 6.827 0 0 0 2.851 9.213 6.828 6.828 0 0 0 9.203-2.832l.01-.02.711-1.349a6.778 6.778 0 0 0 .482-5.197 6.775 6.775 0 0 0-3.334-4.015 6.826 6.826 0 0 0-9.201 2.83z"/><path id="C" d="M1002.585 672.915l-.408-1.12a1.248 1.248 0 0 1 .746-1.6l13.6-4.95c.649-.236-10.192 7.348-12.338 8.416a1.248 1.248 0 0 1-1.6-.746z"/><path id="D" d="M1007.972 665.273s1.405-3.9 1.64-3.252l4.95 13.601a1.248 1.248 0 0 1-.745 1.6l-1.121.408a1.248 1.248 0 0 1-1.6-.746z"/><path id="E" d="M1048.482 686.315c.305.982-1.559 4.905-2.039 5.814l-.71 1.348c-.002.004.452 3.616.45 3.62-.994 1.87-3.777-1.022-5.651-2.01-1.877-.99-5.684-3.516-4.694-5.394l3.795-1.155.007-.012a3.825 3.825 0 0 1 2.26-1.87 3.826 3.826 0 0 1 2.934.272c.91.48 3.344-1.595 3.648-.613zm-11.464.817l-.012.021-.71 1.349a6.827 6.827 0 0 0 2.851 9.213 6.828 6.828 0 0 0 9.203-2.832l.01-.02.711-1.349a6.778 6.778 0 0 0 .482-5.197 6.775 6.775 0 0 0-3.334-4.015 6.826 6.826 0 0 0-9.201 2.83z"/></defs><g opacity=".5"><g opacity=".5"><g opacity=".45"><g opacity=".45"><use fill="#fff" xlink:href="#a" opacity=".45" transform="translate(-334 -659)"/><use fill="#fff" xlink:href="#b" opacity=".45" transform="translate(-334 -659)"/></g><use fill="#fff" xlink:href="#c" opacity=".45" transform="translate(-334 -659)"/><use fill="#fff" xlink:href="#d" opacity=".45" transform="translate(-334 -659)"/></g><g opacity=".45"><g opacity=".45"><use fill="#fff" xlink:href="#e" opacity=".45" transform="translate(-334 -659)"/><use fill="#fff" xlink:href="#f" opacity=".45" transform="translate(-334 -659)"/></g><use fill="#fff" xlink:href="#g" opacity=".45" transform="translate(-334 -659)"/></g></g><g opacity=".5"><g opacity=".45"><g opacity=".45"><use fill="#fff" xlink:href="#h" opacity=".45" transform="translate(-334 -659)"/><use fill="#fff" xlink:href="#i" opacity=".45" transform="translate(-334 -659)"/></g><use fill="#fff" xlink:href="#j" opacity=".45" transform="translate(-334 -659)"/><use fill="#fff" xlink:href="#k" opacity=".45" transform="translate(-334 -659)"/></g><g opacity=".45"><g opacity=".45"><use fill="#fff" xlink:href="#l" opacity=".45" transform="translate(-334 -659)"/><use fill="#fff" xlink:href="#m" opacity=".45" transform="translate(-334 -659)"/></g><use fill="#fff" xlink:href="#n" opacity=".45" transform="translate(-334 -659)"/></g></g><g opacity=".5"><g opacity=".45"><g opacity=".45"><use fill="#fff" xlink:href="#o" opacity=".45" transform="translate(-334 -659)"/><use fill="#fff" xlink:href="#p" opacity=".45" transform="translate(-334 -659)"/></g><use fill="#fff" xlink:href="#q" opacity=".45" transform="translate(-334 -659)"/><use fill="#fff" xlink:href="#r" opacity=".45" transform="translate(-334 -659)"/></g><g opacity=".45"><g opacity=".45"><use fill="#fff" xlink:href="#s" opacity=".45" transform="translate(-334 -659)"/><use fill="#fff" xlink:href="#t" opacity=".45" transform="translate(-334 -659)"/></g><use fill="#fff" xlink:href="#u" opacity=".45" transform="translate(-334 -659)"/></g></g><g opacity=".5"><g opacity=".45"><g opacity=".45"><use fill="#fff" xlink:href="#v" opacity=".45" transform="translate(-334 -659)"/><use fill="#fff" xlink:href="#w" opacity=".45" transform="translate(-334 -659)"/></g><use fill="#fff" xlink:href="#x" opacity=".45" transform="translate(-334 -659)"/><use fill="#fff" xlink:href="#y" opacity=".45" transform="translate(-334 -659)"/></g><g opacity=".45"><g opacity=".45"><use fill="#fff" xlink:href="#z" opacity=".45" transform="translate(-334 -659)"/><use fill="#fff" xlink:href="#A" opacity=".45" transform="translate(-334 -659)"/></g><use fill="#fff" xlink:href="#B" opacity=".45" transform="translate(-334 -659)"/></g></g><g opacity=".45"><g opacity=".45"><use fill="#fff" xlink:href="#C" opacity=".45" transform="translate(-334 -659)"/><use fill="#fff" xlink:href="#D" opacity=".45" transform="translate(-334 -659)"/></g><use fill="#fff" xlink:href="#E" opacity=".45" transform="translate(-334 -659)"/></g></g></svg>