<svg xmlns="http://www.w3.org/2000/svg" xmlns:xlink="http://www.w3.org/1999/xlink" width="180" height="185" viewBox="0 0 180 185"><defs><path id="a" d="M77.799 403.37l.783.548a1 1 0 0 1 .245 1.392l-6.651 9.5a1 1 0 0 1-1.393.245l-.783-.548a1 1 0 0 1-.245-1.393l5.914-3.235c.317-.453 1.677-6.826 2.13-6.51z"/><path id="b" d="M80.134 412.72l-.548.783a1 1 0 0 1-1.393.245l-2.426-4.027c-.453-.317-7.635-3.564-7.319-4.016l.549-.783a1 1 0 0 1 1.392-.246l5.378 5.045c.452.316 4.684 2.547 4.367 3z"/><path id="c" d="M58.805 376.216l-.614.732a1 1 0 0 1-1.41.123l-8.882-7.453a1 1 0 0 1-.124-1.41l.615-.731a1 1 0 0 1 1.409-.124l2.707 6.174c.423.355 6.654 2.266 6.299 2.689z"/><path id="d" d="M49.286 377.727l-.732-.614a1 1 0 0 1-.123-1.409l4.224-2.066c.355-.423 4.216-7.295 4.639-6.94l.732.614a1 1 0 0 1 .123 1.409l-5.494 4.917c-.355.423-2.945 4.444-3.369 4.09z"/><path id="e" d="M43.214 445.88l-.627-.721a1 1 0 0 1 .099-1.411l8.751-7.608c.417-.362-5.513 8.423-6.812 9.838a1 1 0 0 1-1.41-.098z"/><path id="f" d="M45.049 438.617s-.069-3.32.294-2.903l7.607 8.751a1 1 0 0 1-.098 1.411l-.722.627a1 1 0 0 1-1.41-.098z"/><path id="g" d="M90.204 351.724a3.062 3.062 0 0 1-2.34.317l-1.18-.312c-.004 0-.007-.002-.01-.003a3.088 3.088 0 0 1-2.185-3.767 3.088 3.088 0 0 1 3.77-2.194l1.18.312.012.003a3.065 3.065 0 0 1 1.867 1.428c.414.711.526 1.543.316 2.339a3.065 3.065 0 0 1-1.43 1.877zm-.138-7.942l-.018-.005-4.172 2.303c-2.913-.77-2.918-1.64-3.687 1.272a5.47 5.47 0 0 0 3.869 6.673l.018.005 1.788-1.99c1.41.373 2.275 2.475 3.536 1.741a5.428 5.428 0 0 0 2.534-3.326 5.469 5.469 0 0 0-3.868-6.673z"/><path id="h" d="M81.391 442.725c.51.647.242 4.116.144 4.934l-.144 1.212c0 .003 1.376 2.575 1.376 2.578-.207 1.684-3.118.32-4.804.12-1.688-.202-5.26-.998-5.06-2.687l2.508-1.954.001-.01c.1-.814.51-1.541 1.154-2.048a3.065 3.065 0 0 1 2.272-.64c.818.098 2.044-2.152 2.553-1.505zm-8.34 3.902l-.003.02-.145 1.212a5.47 5.47 0 0 0 4.779 6.072 5.47 5.47 0 0 0 6.07-4.76l.002-.019.144-1.212a5.43 5.43 0 0 0-1.131-4.025 5.428 5.428 0 0 0-3.647-2.047 5.469 5.469 0 0 0-6.07 4.76z"/><path id="i" d="M38.085 404.75c-.527.632-3.976 1.092-4.796 1.166l-1.216.111c-.003 0-2.232 1.881-2.236 1.882-1.69.148-.961-2.984-1.116-4.674-.153-1.693-.117-5.353 1.577-5.508l2.432 2.046h.011a3.064 3.064 0 0 1 2.243.702 3.065 3.065 0 0 1 1.097 2.09c.075.82 2.531 1.552 2.004 2.184zm-5.551-7.348l-.02.002-1.216.11a5.47 5.47 0 0 0-4.946 5.937 5.47 5.47 0 0 0 5.918 4.948l.02-.002 1.215-.11a5.43 5.43 0 0 0 3.702-1.945 5.428 5.428 0 0 0 1.243-3.992 5.469 5.469 0 0 0-5.916-4.948z"/><path id="j" d="M185.799 339.37l.783.548a1 1 0 0 1 .245 1.392l-6.651 9.5a1 1 0 0 1-1.393.245l-.783-.548a1 1 0 0 1-.245-1.393l5.914-3.235c.317-.453 1.677-6.826 2.13-6.51z"/><path id="k" d="M188.134 348.72l-.548.783a1 1 0 0 1-1.393.245l-2.426-4.027c-.453-.317-7.635-3.564-7.319-4.016l.549-.783a1 1 0 0 1 1.392-.246l5.378 5.045c.452.316 4.684 2.547 4.367 3z"/><path id="l" d="M166.805 312.216l-.614.732a1 1 0 0 1-1.41.123l-8.882-7.453a1 1 0 0 1-.124-1.41l.615-.731a1 1 0 0 1 1.409-.124l2.707 6.174c.423.355 6.654 2.266 6.299 2.689z"/><path id="m" d="M157.286 313.727l-.732-.614a1 1 0 0 1-.123-1.409l4.224-2.066c.355-.423 4.216-7.295 4.639-6.94l.732.614a1 1 0 0 1 .123 1.409l-5.494 4.917c-.355.423-2.945 4.444-3.369 4.09z"/><path id="n" d="M151.214 381.88l-.627-.721a1 1 0 0 1 .099-1.411l8.751-7.608c.417-.362-5.513 8.423-6.812 9.838a1 1 0 0 1-1.41-.098z"/><path id="o" d="M153.049 374.617s-.069-3.32.294-2.903l7.607 8.751a1 1 0 0 1-.098 1.411l-.722.627a1 1 0 0 1-1.41-.098z"/><path id="p" d="M198.204 287.724a3.062 3.062 0 0 1-2.34.317l-1.18-.312c-.004 0-.007-.002-.01-.003a3.088 3.088 0 0 1-2.185-3.767 3.088 3.088 0 0 1 3.77-2.194l1.18.312.012.003a3.065 3.065 0 0 1 1.867 1.428c.414.711.526 1.543.316 2.339a3.065 3.065 0 0 1-1.43 1.877zm-.138-7.942l-.018-.005-4.172 2.303c-2.913-.77-2.918-1.64-3.687 1.272a5.47 5.47 0 0 0 3.869 6.673l.018.005 1.788-1.99c1.41.373 2.275 2.475 3.536 1.741a5.428 5.428 0 0 0 2.534-3.326 5.469 5.469 0 0 0-3.868-6.673z"/><path id="q" d="M189.391 378.725c.51.647.242 4.116.144 4.934l-.144 1.212c0 .003 1.376 2.575 1.376 2.578-.207 1.684-3.118.32-4.804.12-1.688-.202-5.26-.998-5.06-2.687l2.508-1.954.001-.01c.1-.814.51-1.541 1.154-2.048a3.065 3.065 0 0 1 2.272-.64c.818.098 2.044-2.152 2.553-1.505zm-8.34 3.902l-.003.02-.145 1.212a5.47 5.47 0 0 0 4.779 6.072 5.47 5.47 0 0 0 6.07-4.76l.002-.019.144-1.212a5.43 5.43 0 0 0-1.131-4.025 5.428 5.428 0 0 0-3.647-2.047 5.469 5.469 0 0 0-6.07 4.76z"/><path id="r" d="M146.085 340.75c-.527.632-3.976 1.092-4.796 1.166l-1.216.111c-.003 0-2.232 1.881-2.236 1.882-1.69.148-.961-2.984-1.115-4.674-.154-1.693-.118-5.353 1.576-5.508l2.432 2.046h.011a3.064 3.064 0 0 1 2.243.702 3.065 3.065 0 0 1 1.097 2.09c.075.82 2.531 1.552 2.004 2.184zm-5.551-7.348l-.02.002-1.216.11a5.47 5.47 0 0 0-4.946 5.937 5.47 5.47 0 0 0 5.918 4.948l.02-.002 1.215-.11a5.43 5.43 0 0 0 3.702-1.945 5.428 5.428 0 0 0 1.243-3.992 5.469 5.469 0 0 0-5.916-4.948z"/><path id="s" d="M158.835 414.504l.82-.493a1 1 0 0 1 1.372.343l5.972 9.94a1 1 0 0 1-.342 1.372l-.82.492a1 1 0 0 1-1.371-.342l-.55-6.719c-.285-.473-5.554-4.309-5.08-4.593z"/><path id="t" d="M168.327 416.174l.492.819a1 1 0 0 1-.342 1.372l-4.666.578c-.474.285-6.361 5.526-6.646 5.052l-.492-.819a1 1 0 0 1 .342-1.372l6.796-2.86c.473-.285 4.232-3.244 4.516-2.77z"/><path id="u" d="M126.304 420.811l.419.859a1 1 0 0 1-.46 1.337l-10.423 5.084a1 1 0 0 1-1.337-.46l-.42-.86a1 1 0 0 1 .461-1.337l6.741.038c.496-.242 4.777-5.157 5.019-4.66z"/><path id="v" d="M123.813 430.121l-.86.42a1 1 0 0 1-1.336-.461l-.17-4.7c-.242-.496-4.95-6.818-4.453-7.06l.859-.419a1 1 0 0 1 1.337.46l2.257 7.02c.242.496 2.862 4.498 2.366 4.74z"/><path id="w" d="M183.603 463.389l-.914.28a1 1 0 0 1-1.248-.665l-3.39-11.09c-.162-.527 5.452 8.464 6.216 10.226a1 1 0 0 1-.664 1.249z"/><path id="x" d="M177.715 458.759s-3.061-1.288-2.533-1.45l11.09-3.39a1 1 0 0 1 1.248.664l.28.914a1 1 0 0 1-.664 1.249z"/><path id="y" d="M116.7 382.165a3.062 3.062 0 0 1-.662 2.266l-.765.952-.007.008a3.088 3.088 0 0 1-4.33.463 3.088 3.088 0 0 1-.47-4.336l.765-.952.007-.008a3.065 3.065 0 0 1 2.064-1.125 3.065 3.065 0 0 1 2.265.662 3.065 3.065 0 0 1 1.134 2.07zm-7.311-3.105l-.012.015.407 4.748c-1.887 2.348-2.686 1.998-.338 3.886a5.47 5.47 0 0 0 7.67-.82l.012-.015-1.09-2.443c.914-1.137 3.186-1.072 3.028-2.522a5.428 5.428 0 0 0-2.008-3.668 5.469 5.469 0 0 0-7.67.82z"/><path id="z" d="M196.249 427.23c.798-.203 3.859 1.452 4.566 1.874l1.05.625c.002.002 2.91-.21 2.914-.208 1.454.873-.976 2.979-1.845 4.437-.87 1.46-3.051 4.4-4.513 3.53l-.764-3.086-.01-.005a3.065 3.065 0 0 1-1.401-1.887 3.065 3.065 0 0 1 .34-2.336c.423-.708-1.135-2.743-.337-2.945zm.173 9.206l.016.01 1.05.626a5.47 5.47 0 0 0 7.49-1.896 5.47 5.47 0 0 0-1.88-7.482l-.016-.01-1.049-.624a5.43 5.43 0 0 0-4.137-.604 5.428 5.428 0 0 0-3.353 2.5 5.469 5.469 0 0 0 1.879 7.48z"/><path id="A" d="M143.943 451.345c.364.739-.62 4.076-.885 4.856l-.393 1.156c-.001.003.81 2.805.81 2.808-.553 1.604-3.117-.335-4.724-.882-1.61-.548-4.939-2.07-4.39-3.68l2.858-1.39.003-.01c.267-.775.819-1.4 1.555-1.763a3.065 3.065 0 0 1 2.355-.153c.78.266 2.447-1.68 2.81-.942zm-8.97 2.083l-.007.019-.393 1.156a5.47 5.47 0 0 0 3.411 6.932 5.47 5.47 0 0 0 6.927-3.393l.007-.018.393-1.156a5.43 5.43 0 0 0-.27-4.173 5.428 5.428 0 0 0-3.142-2.76 5.469 5.469 0 0 0-6.926 3.393z"/></defs><g opacity=".8"><g opacity=".8"><g opacity=".8"><use fill="#6bb1ff" xlink:href="#a" opacity=".8" transform="translate(-26 -279)"/><use fill="#6bb1ff" xlink:href="#b" opacity=".8" transform="translate(-26 -279)"/></g><g opacity=".8"><use fill="#6bb1ff" xlink:href="#c" opacity=".8" transform="translate(-26 -279)"/><use fill="#6bb1ff" xlink:href="#d" opacity=".8" transform="translate(-26 -279)"/></g><g opacity=".8"><use fill="#6bb1ff" xlink:href="#e" opacity=".8" transform="translate(-26 -279)"/><use fill="#6bb1ff" xlink:href="#f" opacity=".8" transform="translate(-26 -279)"/></g><use fill="#6bb1ff" xlink:href="#g" opacity=".8" transform="translate(-26 -279)"/><use fill="#6bb1ff" xlink:href="#h" opacity=".8" transform="translate(-26 -279)"/><use fill="#6bb1ff" xlink:href="#i" opacity=".8" transform="translate(-26 -279)"/></g><g opacity=".8"><g opacity=".8"><use fill="#6bb1ff" xlink:href="#j" opacity=".8" transform="translate(-26 -279)"/><use fill="#6bb1ff" xlink:href="#k" opacity=".8" transform="translate(-26 -279)"/></g><g opacity=".8"><use fill="#6bb1ff" xlink:href="#l" opacity=".8" transform="translate(-26 -279)"/><use fill="#6bb1ff" xlink:href="#m" opacity=".8" transform="translate(-26 -279)"/></g><g opacity=".8"><use fill="#6bb1ff" xlink:href="#n" opacity=".8" transform="translate(-26 -279)"/><use fill="#6bb1ff" xlink:href="#o" opacity=".8" transform="translate(-26 -279)"/></g><use fill="#6bb1ff" xlink:href="#p" opacity=".8" transform="translate(-26 -279)"/><use fill="#6bb1ff" xlink:href="#q" opacity=".8" transform="translate(-26 -279)"/><use fill="#6bb1ff" xlink:href="#r" opacity=".8" transform="translate(-26 -279)"/></g><g opacity=".8"><g opacity=".8"><use fill="#6bb1ff" xlink:href="#s" opacity=".8" transform="translate(-26 -279)"/><use fill="#6bb1ff" xlink:href="#t" opacity=".8" transform="translate(-26 -279)"/></g><g opacity=".8"><use fill="#6bb1ff" xlink:href="#u" opacity=".8" transform="translate(-26 -279)"/><use fill="#6bb1ff" xlink:href="#v" opacity=".8" transform="translate(-26 -279)"/></g><g opacity=".8"><use fill="#6bb1ff" xlink:href="#w" opacity=".8" transform="translate(-26 -279)"/><use fill="#6bb1ff" xlink:href="#x" opacity=".8" transform="translate(-26 -279)"/></g><use fill="#6bb1ff" xlink:href="#y" opacity=".8" transform="translate(-26 -279)"/><use fill="#6bb1ff" xlink:href="#z" opacity=".8" transform="translate(-26 -279)"/><use fill="#6bb1ff" xlink:href="#A" opacity=".8" transform="translate(-26 -279)"/></g></g></svg>