<svg xmlns="http://www.w3.org/2000/svg" xmlns:xlink="http://www.w3.org/1999/xlink" width="147" height="125" viewBox="0 0 147 125"><defs><path id="a" d="M1373.79 229.317c.287.41.164 1.106-.246 1.392l-.783.549c-.41.286-1.106.164-1.392-.246l-6.652-9.499c-.286-.41-.164-1.106.246-1.393l.783-.548c.41-.287 1.106-.164 1.393.246z"/><path id="b" d="M1365.352 229.951c-.41.287-1.106.164-1.393-.246l-.548-.782c-.287-.41-.164-1.106.245-1.393l9.5-6.651c.409-.287 1.105-.164 1.392.245l.548.783c.287.41.164 1.106-.245 1.393z"/><path id="c" d="M1319.742 254.266c-.446.227-1.118.009-1.345-.437l-.434-.851c-.227-.446-.009-1.118.437-1.345l10.332-5.265c.446-.227 1.118-.008 1.345.437l.434.852c.227.445.008 1.118-.437 1.345z"/><path id="d" d="M1320.288 245.822c-.227-.446-.009-1.118.437-1.345l.851-.434c.446-.227 1.118-.009 1.345.437l5.265 10.332c.227.446.008 1.118-.437 1.345l-.852.434c-.445.227-1.118.008-1.345-.437z"/><path id="e" d="M1324.621 312.816c-.41.287-1.106.164-1.393-.246l-.548-.782c-.286-.41-.164-1.106.246-1.393l9.499-6.651c.41-.287 1.106-.164 1.393.245l.548.783c.286.41.164 1.106-.246 1.393z"/><path id="f" d="M1323.987 304.378c-.287-.41-.164-1.106.245-1.393l.783-.548c.41-.287 1.106-.164 1.393.246l6.651 9.499c.287.41.164 1.106-.245 1.392l-.783.548c-.41.287-1.106.164-1.393-.245z"/><path id="g" d="M1240.403 254.108c.467-.18 1.113.108 1.292.575l.342.892c.18.467-.108 1.113-.575 1.292l-10.826 4.156c-.467.179-1.113-.109-1.292-.575l-.342-.893c-.18-.466.108-1.112.575-1.292z"/><path id="h" d="M1238.977 262.449c.18.466-.108 1.112-.575 1.292l-.892.342c-.467.18-1.113-.108-1.292-.575l-4.156-10.826c-.18-.467.108-1.113.575-1.292l.892-.342c.467-.18 1.113.108 1.292.575z"/><path id="i" d="M1267.432 298.608a3.062 3.062 0 0 1 .663-2.266l.764-.951.007-.009a3.088 3.088 0 0 1 4.33-.463 3.088 3.088 0 0 1 .47 4.337l-.764.951-.007.009a3.065 3.065 0 0 1-2.064 1.125 3.065 3.065 0 0 1-2.266-.662 3.065 3.065 0 0 1-1.133-2.07zm7.312 3.105l.012-.015.765-.951a5.47 5.47 0 0 0-.834-7.682 5.47 5.47 0 0 0-7.67.82l-.013.015-.764.951a5.43 5.43 0 0 0-1.174 4.014 5.428 5.428 0 0 0 2.009 3.668 5.469 5.469 0 0 0 7.669-.82z"/><path id="j" d="M1295.58 198.2a3.062 3.062 0 0 1 .177-2.354l.55-1.09.005-.01a3.088 3.088 0 0 1 4.14-1.352 3.088 3.088 0 0 1 1.361 4.143l-.55 1.09-.005.01a3.065 3.065 0 0 1-1.785 1.53 3.065 3.065 0 0 1-2.354-.177 3.065 3.065 0 0 1-1.539-1.79zm7.798 1.518l.009-.018.55-1.09a5.47 5.47 0 0 0-2.413-7.34 5.47 5.47 0 0 0-7.34 2.414l-.551 1.09a5.43 5.43 0 0 0-.314 4.17 5.428 5.428 0 0 0 2.728 3.17 5.469 5.469 0 0 0 7.33-2.396z"/></defs><g opacity=".9"><use fill="#3e5e96" xlink:href="#a" opacity=".9" transform="translate(-1229 -190)"/><use fill="#3e5e96" xlink:href="#b" opacity=".9" transform="translate(-1229 -190)"/></g><g opacity=".9"><use fill="#3e5e96" xlink:href="#c" opacity=".9" transform="translate(-1229 -190)"/><use fill="#3e5e96" xlink:href="#d" opacity=".9" transform="translate(-1229 -190)"/></g><g opacity=".9"><use fill="#3e5e96" xlink:href="#e" opacity=".9" transform="translate(-1229 -190)"/><use fill="#3e5e96" xlink:href="#f" opacity=".9" transform="translate(-1229 -190)"/></g><g opacity=".9"><use fill="#3e5e96" xlink:href="#g" opacity=".9" transform="translate(-1229 -190)"/><use fill="#3e5e96" xlink:href="#h" opacity=".9" transform="translate(-1229 -190)"/></g><use fill="#3e5e96" xlink:href="#i" opacity=".9" transform="translate(-1229 -190)"/><use fill="#3e5e96" xlink:href="#j" opacity=".9" transform="translate(-1229 -190)"/></svg>