<svg xmlns="http://www.w3.org/2000/svg" xmlns:xlink="http://www.w3.org/1999/xlink" width="180" height="117" viewBox="0 0 180 117"><defs><path id="a" d="M53.761 477.896c-.41-.287-.532-.983-.246-1.393l.549-.783c.286-.41.983-.532 1.392-.245l9.5 6.65c.409.288.532.984.245 1.394l-.548.782c-.287.41-.983.533-1.393.246z"/><path id="b" d="M61.473 474.414c.287-.41.983-.533 1.393-.246l.783.548c.41.287.532.983.245 1.393l-6.65 9.499c-.288.41-.984.532-1.394.246l-.782-.549c-.41-.286-.533-.983-.246-1.392z"/><path id="c" d="M96.016 435.966c.341-.366 1.048-.39 1.414-.05l.699.652c.365.341.39 1.048.049 1.413l-7.908 8.481c-.341.366-1.048.39-1.414.05l-.699-.652c-.365-.341-.39-1.048-.05-1.414z"/><path id="d" d="M98.391 444.087c.366.341.39 1.048.05 1.414l-.652.699c-.341.365-1.048.39-1.413.049l-8.481-7.908c-.366-.341-.39-1.048-.05-1.414l.652-.699c.341-.365 1.048-.39 1.413-.05z"/><path id="e" d="M71.406 382.616c.287-.41.983-.533 1.393-.246l.783.548c.41.287.532.983.245 1.393l-6.651 9.499c-.287.41-.983.532-1.393.245l-.783-.548c-.41-.287-.532-.983-.245-1.393z"/><path id="f" d="M74.888 390.328c.41.286.532.983.246 1.392l-.549.783c-.286.41-.983.533-1.392.246l-9.5-6.651c-.409-.287-.532-.984-.245-1.393l.548-.783c.287-.41.984-.532 1.393-.246z"/><path id="g" d="M170.625 408.979c-.378.328-1.083.278-1.411-.099l-.627-.721c-.328-.377-.279-1.083.099-1.41l8.751-7.609c.378-.328 1.083-.278 1.411.1l.627.72c.328.378.279 1.083-.099 1.411z"/><path id="h" d="M169.112 400.653c-.328-.377-.279-1.082.098-1.41l.722-.627c.377-.328 1.082-.28 1.41.098l7.608 8.752c.328.377.279 1.083-.099 1.41l-.72.628c-.378.328-1.084.278-1.412-.1z"/><path id="i" d="M9.686 478.391c.388-.314 1.091-.24 1.406.148l.601.743c.315.388.241 1.092-.147 1.406l-9.012 7.298c-.389.315-1.092.24-1.407-.148l-.601-.743c-.315-.388-.24-1.091.148-1.406z"/><path id="j" d="M10.907 486.765c.315.388.24 1.091-.148 1.406l-.743.602c-.388.314-1.091.24-1.406-.148l-7.298-9.012c-.314-.389-.24-1.092.148-1.407l.743-.601c.388-.315 1.092-.24 1.406.148z"/><path id="k" d="M25.345 433.821c-.538.624-1.287 1-2.109 1.061l-1.217.09h-.01a3.088 3.088 0 0 1-3.293-2.85 3.088 3.088 0 0 1 2.85-3.302l1.219-.09h.01a3.065 3.065 0 0 1 2.231.742c.623.538 1 1.287 1.06 2.108a3.065 3.065 0 0 1-.74 2.241zm-2.715-7.465l-.02.001-1.218.09a5.47 5.47 0 0 0-5.048 5.85 5.47 5.47 0 0 0 5.83 5.05l.02-.002 1.217-.09a5.43 5.43 0 0 0 3.736-1.879 5.428 5.428 0 0 0 1.312-3.97 5.469 5.469 0 0 0-5.83-5.05z"/><path id="l" d="M130.006 376.407c.364.739.418 1.576.152 2.356l-.393 1.155a3.088 3.088 0 0 1-3.914 1.926 3.088 3.088 0 0 1-1.926-3.913l.394-1.156.003-.01a3.064 3.064 0 0 1 1.555-1.764 3.065 3.065 0 0 1 2.355-.152c.78.265 1.41.819 1.774 1.558zm-7.933-.417l-.007.018-.393 1.156a5.47 5.47 0 0 0 3.411 6.933 5.47 5.47 0 0 0 6.927-3.394l.007-.018.393-1.156a5.43 5.43 0 0 0-.27-4.173 5.428 5.428 0 0 0-3.142-2.76 5.469 5.469 0 0 0-6.926 3.394z"/><path id="m" d="M137.896 480.386c.51.647.737 1.455.64 2.273l-.145 1.212-.001.011a3.088 3.088 0 0 1-3.427 2.687 3.088 3.088 0 0 1-2.697-3.428l.144-1.212.002-.011c.1-.814.51-1.54 1.154-2.048a3.065 3.065 0 0 1 2.272-.639 3.065 3.065 0 0 1 2.058 1.155zm-7.846 1.242l-.002.019-.145 1.213a5.47 5.47 0 0 0 4.779 6.072 5.47 5.47 0 0 0 6.07-4.76l.002-.02.144-1.212a5.43 5.43 0 0 0-1.131-4.025 5.428 5.428 0 0 0-3.647-2.046 5.469 5.469 0 0 0-6.07 4.759z"/></defs><g opacity=".9"><use fill="#3e5e96" xlink:href="#a" opacity=".9" transform="translate(0 -372)"/><use fill="#3e5e96" xlink:href="#b" opacity=".9" transform="translate(0 -372)"/></g><g opacity=".9"><use fill="#3e5e96" xlink:href="#c" opacity=".9" transform="translate(0 -372)"/><use fill="#3e5e96" xlink:href="#d" opacity=".9" transform="translate(0 -372)"/></g><g opacity=".9"><use fill="#3e5e96" xlink:href="#e" opacity=".9" transform="translate(0 -372)"/><use fill="#3e5e96" xlink:href="#f" opacity=".9" transform="translate(0 -372)"/></g><g opacity=".9"><use fill="#3e5e96" xlink:href="#g" opacity=".9" transform="translate(0 -372)"/><use fill="#3e5e96" xlink:href="#h" opacity=".9" transform="translate(0 -372)"/></g><g opacity=".9"><use fill="#3e5e96" xlink:href="#i" opacity=".9" transform="translate(0 -372)"/><use fill="#3e5e96" xlink:href="#j" opacity=".9" transform="translate(0 -372)"/></g><use fill="#3e5e96" xlink:href="#k" opacity=".9" transform="translate(0 -372)"/><use fill="#3e5e96" xlink:href="#l" opacity=".9" transform="translate(0 -372)"/><use fill="#3e5e96" xlink:href="#m" opacity=".9" transform="translate(0 -372)"/></svg>