<svg xmlns="http://www.w3.org/2000/svg" xmlns:xlink="http://www.w3.org/1999/xlink" width="81" height="44" viewBox="0 0 81 44"><defs><path id="a" d="M257.468 208.364l3.405 7.301-19.164 8.937c-.68.317-1.194.316-1.582.182-.388-.134-.754-.426-1.095-1.157l-1.702-3.65c-.34-.73-.342-1.228-.196-1.61.147-.384.49-.75 1.17-1.067l19.164-8.936zm48.367-22.554c.744-.347 2.354-.85 3.823-.811 1.47.04 2.682.466 3.355 1.908.473 1.014.34 2.274-.3 3.751-.638 1.48-1.774 3.095-2.981 4.55-5.091 6.142-14.985 12.378-23.637 17.065a242.835 242.835 0 0 1-11.32 5.73c-1.487.706-2.718 1.267-3.594 1.676-.352.165-.575.302-.814.414l-3.445-3.22c-.772-.725-1.651-1.287-2.519-1.604a4.104 4.104 0 0 0-1.598-.227l-3.405-7.301c.074-.077.19-.211.504-.409.754-.474 2.127-1.096 3.952-1.947l41.98-19.575zm-42.83 17.75c-1.731.807-3.041 1.425-3.996 2.002l-.029.013c-.123-.012-.247 0-.367.032a1.01 1.01 0 0 0-.17.08l-20.99 9.788c-1.014.472-1.842 1.204-2.214 2.177-.372.974-.239 2.094.265 3.175l1.703 3.65c.506 1.087 1.264 1.878 2.248 2.216.985.341 2.091.206 3.104-.267l19.906-9.282.086-.04a.996.996 0 0 0 .085-.04c.1-.047.533-.091 1.095.115.563.205 1.213.626 1.798 1.175l3.94 3.684c.36.353.923.386 1.321.078l.257-.12c.233-.114.58-.303 1.013-.506.87-.405 2.098-.965 3.594-1.676a243.795 243.795 0 0 0 11.405-5.77c8.742-4.735 18.77-10.953 24.242-17.554 1.276-1.539 2.484-3.25 3.249-5.022.764-1.772 1.092-3.687.288-5.412-1.03-2.208-3.197-3.018-5.11-3.068-1.915-.05-3.691.505-4.744.996z"/></defs><use fill="#ff3928" xlink:href="#a" opacity=".7" transform="translate(-235 -183)"/></svg>