<svg xmlns="http://www.w3.org/2000/svg" xmlns:xlink="http://www.w3.org/1999/xlink" width="47" height="273" viewBox="0 0 47 273"><defs><path id="a" d="M681.82 248.465l-.327-.898a1 1 0 0 1 .598-1.282l10.897-3.966a1 1 0 0 1 1.281.598l.327.898a1 1 0 0 1-.597 1.281l-6.7-.742c-.52.19-5.29 4.63-5.479 4.11z"/><path id="b" d="M685.27 239.466l.899-.327a1 1 0 0 1 1.281.598l-.322 4.69c.189.52 4.21 7.3 3.69 7.488l-.897.327a1 1 0 0 1-1.282-.598l-1.511-7.216c-.19-.52-2.376-4.773-1.857-4.962z"/><path id="c" d="M687.331 287.903c-.003-.824.315-1.6.896-2.185l.86-.866.008-.008a3.088 3.088 0 0 1 4.354-.008 3.088 3.088 0 0 1 .015 4.362l-.86.867-.008.008c-.58.58-1.35.9-2.17.903a3.065 3.065 0 0 1-2.184-.896 3.065 3.065 0 0 1-.91-2.177zm6.947 3.852l.014-.014.091-4.764c2.123-2.138 2.88-1.706.742-3.829a5.47 5.47 0 0 0-7.713.014l-.014.013.829 2.543c-1.028 1.036-3.28.734-3.276 2.193a5.428 5.428 0 0 0 1.614 3.857 5.469 5.469 0 0 0 7.713-.013z"/><path id="d" d="M667.47 216.254c-.285-.773 1.041-3.989 1.387-4.737l.512-1.108c.001-.003-.513-2.874-.512-2.877.717-1.537 3.065.659 4.605 1.37 1.544.714 4.696 2.575 3.983 4.12l-2.989 1.083-.004.01a3.065 3.065 0 0 1-1.73 1.59 3.065 3.065 0 0 1-2.36-.094c-.747-.346-2.608 1.416-2.893.643zm9.138-1.134l.008-.017.513-1.109a5.47 5.47 0 0 0-2.669-7.251 5.47 5.47 0 0 0-7.252 2.668l-.511 1.108a5.43 5.43 0 0 0-.168 4.179 5.428 5.428 0 0 0 2.836 3.073 5.469 5.469 0 0 0 7.243-2.65z"/><path id="e" d="M684.013 437.888l-.264.92a1 1 0 0 1-1.237.685l-11.146-3.197a1 1 0 0 1-.686-1.236l.263-.92a1 1 0 0 1 1.237-.685l4.985 4.539c.53.152 7-.636 6.848-.106z"/><path id="f" d="M675.932 443.14l-.919-.263a1 1 0 0 1-.685-1.237l3.018-3.605c.152-.531.884-8.38 1.415-8.227l.919.263a1 1 0 0 1 .685 1.237l-3.019 6.727c-.152.53-.883 5.258-1.414 5.105z"/><path id="g" d="M702.735 402.743a3.062 3.062 0 0 1-2.008 1.24l-1.205.196-.01.002a3.088 3.088 0 0 1-3.529-2.553 3.088 3.088 0 0 1 2.552-3.538l1.206-.195.01-.002a3.065 3.065 0 0 1 2.287.545 3.065 3.065 0 0 1 1.24 2.008 3.065 3.065 0 0 1-.543 2.297zm-3.356-7.2l-.019.003-2.874 3.801c-2.974.482-3.333-.312-2.85 2.662a5.47 5.47 0 0 0 6.248 4.522l.019-.003.824-2.544c1.44-.234 3.085 1.335 3.938.152a5.428 5.428 0 0 0 .962-4.07 5.469 5.469 0 0 0-6.248-4.523z"/><path id="h" d="M676.69 472.382c-.224.793-3.188 2.616-3.907 3.017l-1.066.596c-.003.002-1.274 2.627-1.277 2.628-1.483.823-2.092-2.334-2.92-3.815-.83-1.485-2.285-4.843-.8-5.673l3.054.88.01-.006a3.065 3.065 0 0 1 2.334-.27 3.07 3.07 0 0 1 1.853 1.463c.402.72 2.943.388 2.719 1.18zm-8.06-4.454l-.017.01-1.066.596a5.47 5.47 0 0 0-2.104 7.434 5.47 5.47 0 0 0 7.42 2.114l.016-.01 1.065-.596a5.43 5.43 0 0 0 2.592-3.281 5.428 5.428 0 0 0-.488-4.153 5.469 5.469 0 0 0-7.418-2.114z"/><path id="i" d="M670.093 335.166l-.64.71a1 1 0 0 1-1.412.074l-8.618-7.76c-.41-.37 9.033 4.447 10.596 5.563a1 1 0 0 1 .074 1.413z"/><path id="j" d="M662.66 334.23s-3.286.472-2.917.062l7.76-8.618a1 1 0 0 1 1.412-.074l.71.64a1 1 0 0 1 .074 1.412z"/><path id="k" d="M662.308 297.658c.58-.585 4.056-.742 4.88-.745l1.221-.004c.004 0 2.388-1.68 2.391-1.68 1.696 0 .698 3.056.705 4.753.005 1.7-.35 5.343-2.051 5.35l-2.244-2.25h-.012c-.82 0-1.59-.319-2.173-.897a3.065 3.065 0 0 1-.91-2.177c-.003-.824-2.387-1.766-1.807-2.35zm4.89 7.803h.02l1.221-.005a5.47 5.47 0 0 0 5.445-5.482 5.47 5.47 0 0 0-5.465-5.445h-.019l-1.22.004a5.43 5.43 0 0 0-3.858 1.614 5.428 5.428 0 0 0-1.587 3.87 5.469 5.469 0 0 0 5.463 5.444z"/><path id="l" d="M690.205 349.611l.892-.342a1 1 0 0 1 1.292.575l4.156 10.826c.198.515-6.03-8.063-6.915-9.767a1 1 0 0 1 .575-1.292z"/><path id="m" d="M696.402 353.82s3.143 1.07 2.628 1.268l-10.826 4.156a1 1 0 0 1-1.292-.575l-.343-.893a1 1 0 0 1 .576-1.292z"/><path id="n" d="M680.112 386.565c-.782.257-3.95-1.18-4.685-1.552l-1.09-.55c-.003-.002-2.89.412-2.893.41-1.512-.77.765-3.039 1.53-4.554.767-1.518 2.737-4.602 4.256-3.836l.978 3.024.01.005a3.065 3.065 0 0 1 1.53 1.785 3.065 3.065 0 0 1-.178 2.354c-.371.735 1.325 2.657.542 2.914zm-.814-9.173a14.088 14.088 0 0 1-.017-.009l-1.09-.55a5.47 5.47 0 0 0-7.34 2.413 5.47 5.47 0 0 0 2.413 7.341l1.09.55a5.43 5.43 0 0 0 4.17.314 5.428 5.428 0 0 0 3.17-2.728 5.469 5.469 0 0 0-2.396-7.33z"/></defs><g opacity=".9"><g opacity=".9"><use fill="#252236" xlink:href="#a" opacity=".9" transform="translate(-659 -206)"/><use fill="#252236" xlink:href="#b" opacity=".9" transform="translate(-659 -206)"/></g><use fill="#252236" xlink:href="#c" opacity=".9" transform="translate(-659 -206)"/><use fill="#252236" xlink:href="#d" opacity=".9" transform="translate(-659 -206)"/></g><g opacity=".9"><g opacity=".9"><use fill="#252236" xlink:href="#e" opacity=".9" transform="translate(-659 -206)"/><use fill="#252236" xlink:href="#f" opacity=".9" transform="translate(-659 -206)"/></g><use fill="#252236" xlink:href="#g" opacity=".9" transform="translate(-659 -206)"/><use fill="#252236" xlink:href="#h" opacity=".9" transform="translate(-659 -206)"/></g><g opacity=".9"><g opacity=".9"><use fill="#252236" xlink:href="#i" opacity=".9" transform="translate(-659 -206)"/><use fill="#252236" xlink:href="#j" opacity=".9" transform="translate(-659 -206)"/></g><use fill="#252236" xlink:href="#k" opacity=".9" transform="translate(-659 -206)"/></g><g opacity=".9"><g opacity=".9"><use fill="#252236" xlink:href="#l" opacity=".9" transform="translate(-659 -206)"/><use fill="#252236" xlink:href="#m" opacity=".9" transform="translate(-659 -206)"/></g><use fill="#252236" xlink:href="#n" opacity=".9" transform="translate(-659 -206)"/></g></svg>