<svg xmlns="http://www.w3.org/2000/svg" xmlns:xlink="http://www.w3.org/1999/xlink" width="564" height="47" viewBox="0 0 564 47"><defs><path id="a" d="M495.648 2188.754l.914.28a1 1 0 0 1 .664 1.248l-3.39 11.09a1 1 0 0 1-1.249.663l-.914-.28a1 1 0 0 1-.664-1.248l4.625-4.904c.162-.528-.514-7.01.014-6.85z"/><path id="b" d="M500.758 2196.925l-.279.914a1 1 0 0 1-1.249.664l-3.552-3.081c-.528-.161-8.362-1.03-8.201-1.558l.28-.914a1 1 0 0 1 1.248-.664l6.673 3.136c.528.161 5.242.975 5.08 1.503z"/><path id="c" d="M460.835 2169.42a3.062 3.062 0 0 1 1.206 2.03l.174 1.21.001.01a3.088 3.088 0 0 1-2.614 3.482 3.088 3.088 0 0 1-3.492-2.613l-.175-1.209-.001-.01a3.065 3.065 0 0 1 .585-2.277 3.065 3.065 0 0 1 2.03-1.205 3.065 3.065 0 0 1 2.286.583zm-7.257 3.23l.002.02 3.75 2.94c.43 2.981-.37 3.327 2.612 2.897a5.47 5.47 0 0 0 4.628-6.188l-2.53-.868c-.208-1.445 1.39-3.061.22-3.936a5.428 5.428 0 0 0-4.051-1.032 5.469 5.469 0 0 0-4.631 6.167z"/><path id="d" d="M530.01 2196.677c.788.238 2.558 3.233 2.947 3.96l.578 1.075c.001.003 2.604 1.32 2.605 1.323.796 1.498-2.37 2.05-3.866 2.853-1.499.804-4.882 2.2-5.686.701l.933-3.038-.005-.01a3.065 3.065 0 0 1-.23-2.339 3.066 3.066 0 0 1 1.496-1.827c.726-.389.439-2.935 1.227-2.697zm-4.595 7.981l.01.018.576 1.076a5.47 5.47 0 0 0 7.397 2.233 5.47 5.47 0 0 0 2.243-7.38l-.01-.018-.577-1.075a5.43 5.43 0 0 0-3.236-2.649 5.428 5.428 0 0 0-4.16.416 5.469 5.469 0 0 0-2.243 7.38z"/><path id="e" d="M407.492 2181.022l-.327-.898a1 1 0 0 1 .598-1.282l10.897-3.966c.519-.189-8.166 5.888-9.886 6.744a1 1 0 0 1-1.282-.598z"/><path id="f" d="M411.808 2174.9s1.126-3.125 1.315-2.606l3.966 10.897a1 1 0 0 1-.598 1.281l-.898.327a1 1 0 0 1-1.282-.597z"/><path id="g" d="M444.264 2191.758c.244.787-1.249 3.93-1.633 4.658l-.57 1.08c-.001.003.363 2.897.361 2.9-.796 1.497-3.026-.819-4.527-1.61-1.504-.793-4.554-2.817-3.761-4.322l3.04-.925.006-.01a3.065 3.065 0 0 1 1.81-1.498 3.065 3.065 0 0 1 2.351.218c.73.384 2.68-1.278 2.923-.491zm-9.185.654l-.01.017-.569 1.08a5.47 5.47 0 0 0 2.285 7.382 5.47 5.47 0 0 0 7.373-2.269l.009-.016.57-1.08a5.43 5.43 0 0 0 .385-4.164 5.428 5.428 0 0 0-2.671-3.217 5.469 5.469 0 0 0-7.372 2.267z"/><path id="h" d="M882.888 2181.64l-.903.31a1 1 0 0 1-1.271-.62l-3.776-10.964a1 1 0 0 1 .62-1.27l.904-.312a1 1 0 0 1 1.271.62l-.859 6.686c.18.522 4.537 5.37 4.014 5.55z"/><path id="i" d="M873.951 2178.032l-.31-.903a1 1 0 0 1 .62-1.271l4.684.404c.522-.18 7.37-4.082 7.55-3.56l.312.904a1 1 0 0 1-.62 1.271l-7.242 1.385c-.522.18-4.814 2.293-4.994 1.77z"/><path id="j" d="M922.417 2176.818a3.062 3.062 0 0 1-2.169-.934l-.851-.875-.008-.008a3.088 3.088 0 0 1 .068-4.354 3.088 3.088 0 0 1 4.362.061l.851.876.008.008c.57.59.876 1.365.865 2.185a3.065 3.065 0 0 1-.933 2.168 3.069 3.069 0 0 1-2.193.873zm3.973-6.88l-.014-.013-4.762-.174c-2.1-2.16-1.656-2.91-3.815-.81a5.47 5.47 0 0 0-.121 7.713l.013.014 2.557-.784c1.018 1.046.676 3.293 2.135 3.313 1.46.02 2.84-.529 3.885-1.546a5.469 5.469 0 0 0 .122-7.712z"/><path id="k" d="M850.433 2195.426c-.778.271-3.971-1.111-4.713-1.47l-1.1-.531c-.002-.002-2.882.463-2.885.461-1.524-.743.713-3.052 1.451-4.58.74-1.532 2.657-4.65 4.188-3.91l1.031 3.007.01.004c.737.36 1.29.984 1.56 1.758a3.067 3.067 0 0 1-.135 2.357c-.36.741 1.37 2.633.593 2.904zm-.975-9.157l-.017-.009-1.1-.531a5.47 5.47 0 0 0-7.297 2.541 5.47 5.47 0 0 0 2.524 7.29l.018.007 1.099.531a5.43 5.43 0 0 0 4.175.241 5.428 5.428 0 0 0 3.121-2.782 5.469 5.469 0 0 0-2.523-7.288z"/><path id="l" d="M969.37 2201.879l.7.651a1 1 0 0 1 .049 1.414l-7.909 8.48c-.376.405 4.603-8.953 5.747-10.496a1 1 0 0 1 1.413-.05z"/><path id="m" d="M968.305 2209.293s.415 3.295.011 2.918l-8.48-7.908a1 1 0 0 1-.05-1.413l.652-.7a1 1 0 0 1 1.413-.049z"/><path id="n" d="M931.732 2209.007c-.574-.59-.67-4.068-.659-4.892l.017-1.22c0-.004-1.638-2.417-1.638-2.42.03-1.697 3.068-.645 4.765-.622 1.7.024 5.336.443 5.313 2.144l-2.29 2.204v.011a3.065 3.065 0 0 1-.933 2.158c-.59.574-1.37.884-2.193.872-.824-.011-1.808 2.355-2.382 1.765zm7.887-4.753v-.02l.018-1.22a5.47 5.47 0 0 0-5.387-5.54 5.47 5.47 0 0 0-5.54 5.369v.019l-.016 1.22a5.43 5.43 0 0 0 1.546 3.886 5.428 5.428 0 0 0 3.84 1.653 5.469 5.469 0 0 0 5.54-5.367z"/></defs><g opacity=".9"><g opacity=".9"><use fill="#252236" xlink:href="#a" opacity=".9" transform="translate(-407 -2166)"/><use fill="#252236" xlink:href="#b" opacity=".9" transform="translate(-407 -2166)"/></g><use fill="#252236" xlink:href="#c" opacity=".9" transform="translate(-407 -2166)"/><use fill="#252236" xlink:href="#d" opacity=".9" transform="translate(-407 -2166)"/></g><g opacity=".9"><g opacity=".9"><use fill="#252236" xlink:href="#e" opacity=".9" transform="translate(-407 -2166)"/><use fill="#252236" xlink:href="#f" opacity=".9" transform="translate(-407 -2166)"/></g><use fill="#252236" xlink:href="#g" opacity=".9" transform="translate(-407 -2166)"/></g><g opacity=".9"><g opacity=".9"><use fill="#252236" xlink:href="#h" opacity=".9" transform="translate(-407 -2166)"/><use fill="#252236" xlink:href="#i" opacity=".9" transform="translate(-407 -2166)"/></g><use fill="#252236" xlink:href="#j" opacity=".9" transform="translate(-407 -2166)"/><use fill="#252236" xlink:href="#k" opacity=".9" transform="translate(-407 -2166)"/></g><g opacity=".9"><g opacity=".9"><use fill="#252236" xlink:href="#l" opacity=".9" transform="translate(-407 -2166)"/><use fill="#252236" xlink:href="#m" opacity=".9" transform="translate(-407 -2166)"/></g><use fill="#252236" xlink:href="#n" opacity=".9" transform="translate(-407 -2166)"/></g></svg>