<svg xmlns="http://www.w3.org/2000/svg" xmlns:xlink="http://www.w3.org/1999/xlink" width="78" height="78" viewBox="0 0 78 78"><defs><path id="a" d="M1109.484 468.072c-.594 1.318-1.643 1.639-3.145.961l-1.54-.694 1.747-3.874 1.54.694c1.502.677 1.968 1.649 1.398 2.913zm.145-5.02l-2.682-1.21c-.687-.31-1.22-.38-1.599-.214-.38.166-.724.594-1.034 1.281l-4.113 9.123c-.563 1.248-.438 2.056.375 2.422.812.367 1.5-.073 2.062-1.32l1.111-2.465 2.213.998c1.366.616 2.596.718 3.691.307 1.095-.41 1.95-1.296 2.562-2.655.613-1.359.674-2.606.187-3.742-.494-1.073-1.418-1.915-2.773-2.526z"/><path id="b" d="M1116.006 478.298a1.88 1.88 0 0 1-1.38-.084c-.397-.18-.908-.54-1.533-1.083-.599-.552-1.043-.894-1.331-1.024-.831-.374-1.417-.182-1.76.576-.309.687-.004 1.432.915 2.238.599.552 1.34 1.028 2.226 1.427 1.354.611 2.637.777 3.85.498 1.315-.363 2.267-1.195 2.853-2.496.798-1.77.22-3.551-1.73-5.344a77.17 77.17 0 0 0-.768-.72 5.01 5.01 0 0 1-.479-.494c-.537-.59-.688-1.147-.452-1.67.399-.886 1.158-1.076 2.278-.57.234.105.59.352 1.067.741.477.39.824.632 1.04.73.74.334 1.266.158 1.575-.529.277-.614.064-1.275-.638-1.983a6.836 6.836 0 0 0-1.885-1.241c-1.246-.562-2.449-.69-3.607-.388-1.237.334-2.129 1.106-2.674 2.316-.456 1.011-.458 1.956-.006 2.833.3.636.942 1.381 1.925 2.237.662.603 1.107 1.064 1.333 1.383.395.57.458 1.152.19 1.749-.204.451-.54.75-1.009.898z"/><path id="c" d="M1130.417 479.922c-1.254 2.781-3.15 3.6-5.685 2.457l-1.588-.716 3.628-8.046 1.532.69c2.573 1.16 3.277 3.032 2.113 5.615zm-.86-7.854l-2.385-1.075c-.686-.31-1.219-.38-1.598-.215-.38.166-.723.592-1.032 1.279l-4.141 9.184c-.302.668-.375 1.168-.22 1.498.156.331.567.647 1.236.948l2.709 1.222c1.932.872 3.722.95 5.37.237 1.568-.683 2.797-2.01 3.684-3.979 1.091-2.42 1.004-4.589-.26-6.507-.69-1.027-1.81-1.891-3.363-2.592z"/><path id="d" d="M1101.73 496.714a.572.572 0 0 0-.475 1.04l9.509 4.348a.571.571 0 0 0 .475-1.04z"/><path id="e" d="M1097.631 496.093a.574.574 0 0 0 .758-.281.572.572 0 0 0-.282-.758l-3.128-1.434a.572.572 0 1 0-.476 1.039z"/><path id="f" d="M1138.333 481.073a.571.571 0 0 0-.758.282l-2.781 6.068a.572.572 0 0 0 1.039.476l2.781-6.068a.571.571 0 0 0-.28-.758z"/><path id="g" d="M1133.187 492.3a.571.571 0 0 0 .758-.281l.83-1.811a.571.571 0 1 0-1.04-.476l-.83 1.81a.571.571 0 0 0 .282.758z"/><path id="h" d="M1132.522 493.752a.571.571 0 0 0-.758.281l-3.894 8.495a5.614 5.614 0 0 1-7.433 2.761l-6.027-2.762a.572.572 0 0 0-.476 1.039l6.026 2.762a6.72 6.72 0 0 0 2.657.612 6.76 6.76 0 0 0 6.292-3.935l3.894-8.496a.571.571 0 0 0-.281-.758z"/><path id="i" d="M1070.505 473.732c-.279.28-.65.436-1.046.438l-.587.002h-.005a1.484 1.484 0 0 1-1.482-1.477 1.484 1.484 0 0 1 1.477-1.486l.586-.002h.006c.393 0 .764.152 1.044.43.28.279.436.65.437 1.046.002.396-.151.768-.43 1.049zm-1.051-3.668h-.01l-.586.002a2.628 2.628 0 0 0-2.616 2.633 2.628 2.628 0 0 0 2.625 2.616h.01l.586-.002a2.609 2.609 0 0 0 1.853-.775 2.627 2.627 0 0 0-1.862-4.474z"/><path id="j" d="M1081.775 437.573c.279-.28.65-.436 1.046-.437l.587-.002h.005a1.483 1.483 0 0 1 1.051 2.525c-.279.28-.65.436-1.046.438l-.587.002h-.005c-.394 0-.764-.153-1.044-.43a1.472 1.472 0 0 1-.438-1.047 1.471 1.471 0 0 1 .43-1.049zm1.05 3.67h.01l.587-.003a2.609 2.609 0 0 0 1.853-.775 2.607 2.607 0 0 0 .762-1.859 2.628 2.628 0 0 0-2.624-2.615h-.01l-.586.002a2.608 2.608 0 0 0-1.853.775 2.607 2.607 0 0 0-.763 1.859c.003.7.278 1.359.776 1.853a2.607 2.607 0 0 0 1.849.762z"/><path id="k" d="M1143.591 470.813l-6.913-22.582-.179-.591a.57.57 0 0 0-.32-.36l-24.205-11.09a6.677 6.677 0 0 0-4.013-.503c-.6.11-1.306.222-2.006.224l-14.215.047c-1.326.004-2.484.936-2.693 2.168-.132.775.08 1.56.582 2.152.502.594 1.24.935 2.012.93l12.025-.04c.414 0 .78.197 1.003.545.224.347.254.762.081 1.138-.192.42-.614.692-1.076.694l-8.39.027c-1.326.004-2.484.936-2.693 2.168a2.625 2.625 0 0 0 2.594 3.082l2.06-.007a.954.954 0 0 1 .819.445.954.954 0 0 1 .066.93l-5.495 11.987c-.212.464-.68.764-1.19.766l-7.243.024c-1.326.004-2.484.936-2.693 2.168a2.627 2.627 0 0 0 2.594 3.082l12.026-.04a.88.88 0 0 1 .755.41.897.897 0 0 1-.75 1.38l-19.55.064c-1.33.004-2.454.908-2.674 2.149a2.637 2.637 0 0 0 .573 2.164 2.615 2.615 0 0 0 2.018.936l8.35-.027c.399-.002.751.19.967.526.216.335.245.735.079 1.098l-2.43 5.3a6.701 6.701 0 0 0-.189 5.164 6.712 6.712 0 0 0 3.518 3.785l4.949 2.269a.57.57 0 1 0 .476-1.04l-4.949-2.268a5.578 5.578 0 0 1-2.923-3.145 5.566 5.566 0 0 1 .157-4.288l2.43-5.3a2.28 2.28 0 0 0-.156-2.194 2.266 2.266 0 0 0-1.933-1.05l-8.35.027a1.488 1.488 0 0 1-1.14-.528 1.477 1.477 0 0 1-.322-1.23c.122-.685.79-1.203 1.553-1.205l19.55-.065a2.044 2.044 0 0 0 1.846-1.188 2.029 2.029 0 0 0-.139-1.953 2.032 2.032 0 0 0-1.72-.935l-12.025.04a1.487 1.487 0 0 1-1.137-.525 1.478 1.478 0 0 1-.327-1.222c.117-.691.792-1.214 1.57-1.217l7.243-.024a2.465 2.465 0 0 0 2.225-1.433l5.495-11.986a2.105 2.105 0 0 0-.145-2.025 2.106 2.106 0 0 0-1.784-.97l-2.059.007a1.488 1.488 0 0 1-1.136-.525 1.477 1.477 0 0 1-.328-1.222c.118-.69.793-1.214 1.57-1.217l8.39-.027a2.339 2.339 0 0 0 2.112-1.36 2.32 2.32 0 0 0-.16-2.234 2.316 2.316 0 0 0-1.967-1.069l-12.025.04a1.49 1.49 0 0 1-1.136-.524 1.476 1.476 0 0 1-.328-1.223c.118-.69.793-1.214 1.57-1.216l14.216-.047c.79-.003 1.559-.124 2.207-.243a5.544 5.544 0 0 1 3.331.418l23.634 10.828-1.191 1.888a2.515 2.515 0 0 1-2.121 1.178l-9.507.062c-1.462.01-2.657 1.11-2.72 2.502a2.603 2.603 0 0 0 .73 1.943 2.635 2.635 0 0 0 1.892.805h.017l7.919-.051a.577.577 0 0 1 .53.309.589.589 0 0 1-.017.613.6.6 0 0 1-.506.281l-3.11.02c-1.462.01-2.657 1.109-2.72 2.502a2.604 2.604 0 0 0 .729 1.943 2.672 2.672 0 0 0 1.909.805l1.307-.008h.007c.38 0 1.01.181 1.336.387l12.617 7.96-3.93 8.574a.572.572 0 0 0 1.04.476l4.015-8.761a.569.569 0 0 0 .197-.24l.017-.042a.572.572 0 0 0 .02-.39z"/><path id="l" d="M1134.393 511.244h-4.984a.88.88 0 1 0 0 1.759h4.984a.88.88 0 1 0 0-1.76z"/><path id="m" d="M1127.064 511.244h-21.109a.88.88 0 1 0 0 1.759h21.109a.88.88 0 0 0 0-1.76z"/><path id="n" d="M1101.85 511.244h-9.381a.88.88 0 1 0 0 1.759h9.381a.88.88 0 1 0 0-1.76z"/><path id="o" d="M1089.537 511.244h-2.053a.88.88 0 1 0 0 1.759h2.053a.88.88 0 1 0 0-1.76z"/></defs><g opacity=".9"><use fill="#5aa8ff" xlink:href="#a" opacity=".9" transform="translate(-1066 -435)"/><use fill="#5aa8ff" xlink:href="#b" opacity=".9" transform="translate(-1066 -435)"/><use fill="#5aa8ff" xlink:href="#c" opacity=".9" transform="translate(-1066 -435)"/><use fill="#5aa8ff" xlink:href="#d" opacity=".9" transform="translate(-1066 -435)"/><use fill="#5aa8ff" xlink:href="#e" opacity=".9" transform="translate(-1066 -435)"/><use fill="#5aa8ff" xlink:href="#f" opacity=".9" transform="translate(-1066 -435)"/><use fill="#5aa8ff" xlink:href="#g" opacity=".9" transform="translate(-1066 -435)"/><use fill="#5aa8ff" xlink:href="#h" opacity=".9" transform="translate(-1066 -435)"/><use fill="#5aa8ff" xlink:href="#i" opacity=".9" transform="translate(-1066 -435)"/><use fill="#5aa8ff" xlink:href="#j" opacity=".9" transform="translate(-1066 -435)"/><use fill="#5aa8ff" xlink:href="#k" opacity=".9" transform="translate(-1066 -435)"/><use fill="#5aa8ff" xlink:href="#l" opacity=".9" transform="translate(-1066 -435)"/><use fill="#5aa8ff" xlink:href="#m" opacity=".9" transform="translate(-1066 -435)"/><use fill="#5aa8ff" xlink:href="#n" opacity=".9" transform="translate(-1066 -435)"/><use fill="#5aa8ff" xlink:href="#o" opacity=".9" transform="translate(-1066 -435)"/></g></svg>