<svg xmlns="http://www.w3.org/2000/svg" xmlns:xlink="http://www.w3.org/1999/xlink" width="421" height="421" viewBox="0 0 421 421"><defs><path id="a" d="M584.212 363.887c-12.859 2.894-16.135 11.772-10.723 22.321 24.23 33.225 64.357 54.93 109.422 54.93 45.064 0 85.191-21.705 109.422-54.93 4.298-5.959 2.786-15.29-3.173-19.588-5.959-4.297-15.29-2.785-19.587 3.175-18.97 26.012-50.522 43.33-86.662 43.33-36.14 0-67.692-17.318-86.662-43.33-2.69-3.805-7.38-6.108-12.037-5.908zm182.734-153.842c-19.338 0-35.015 15.677-35.015 35.015s15.677 35.015 35.015 35.015c19.34 0 35.015-15.677 35.015-35.015 0-19.339-15.676-35.015-35.015-35.015zm-168.071 0c-19.34 0-35.015 15.677-35.015 35.015s15.676 35.015 35.015 35.015c19.338 0 35.015-15.677 35.015-35.015 0-19.339-15.677-35.015-35.015-35.015zm84.036-77.033c100.724 0 182.077 81.354 182.077 182.078s-81.353 182.078-182.077 182.078-182.078-81.353-182.078-182.078c0-100.724 81.354-182.077 182.078-182.077zm0-28.012c-115.864 0-210.09 94.226-210.09 210.09 0 115.863 94.226 210.09 210.09 210.09 115.863 0 210.09-94.226 210.09-210.09C893 199.227 798.773 105 682.91 105z"/></defs><use fill="#fff" xlink:href="#a" opacity=".1" transform="translate(-472 -105)"/></svg>