<svg xmlns="http://www.w3.org/2000/svg" xmlns:xlink="http://www.w3.org/1999/xlink" width="22" height="15" viewBox="0 0 22 15"><defs><path id="a" d="M699.9 2794.89l5.922 5.224a.754.754 0 0 1 .075 1.07l-.249.273a.754.754 0 0 1-1.07.075l-2.115-1.89 2.065 2.064a.754.754 0 0 1 .075 1.07l-.224.274a.754.754 0 0 1-1.07.074l-2.164-1.99 1.692 1.866a.754.754 0 0 1 .074 1.07l-.249.298a.754.754 0 0 1-1.07.075l-1.99-1.791.946 1.07a.754.754 0 0 1 .074 1.07l-.273.298a.754.754 0 0 1-1.07.074l-.249-.223-1.22-1.095"/><path id="b" d="M691.367 2800.81a.901.901 0 0 1 0-1.268l1.767-1.817a.901.901 0 0 1 1.268 0 .901.901 0 0 1 0 1.27l-1.766 1.816c-.348.348-.896.348-1.269 0z"/><path id="c" d="M694.178 2803.622a.908.908 0 0 1 0-1.294l1.518-1.542a.908.908 0 0 1 1.294 0 .908.908 0 0 1 0 1.293l-1.518 1.543c-.373.348-.945.348-1.294 0z"/><path id="d" d="M696.169 2804.244a.767.767 0 0 1 0-1.12l.995-1.02a.767.767 0 0 1 1.12 0 .767.767 0 0 1 0 1.12l-.996 1.02c-.323.298-.82.298-1.12 0z"/><path id="e" d="M692.462 2802.477a.901.901 0 0 1 0-1.268l2.14-2.165a.901.901 0 0 1 1.268 0 .901.901 0 0 1 0 1.269l-2.14 2.164a.901.901 0 0 1-1.268 0z"/><path id="f" d="M707.365 2793.048a1.533 1.533 0 0 0-2.14-.249c-.572.448-1.393.448-1.94-.05a3.056 3.056 0 0 0-3.981-.024l-.996.796-.547-.548c-.82-.696-2.04-.671-2.786.125a1.992 1.992 0 0 1-2.687.174c-.448-.348-1.07-.299-1.419.124l-1.691 1.891c-.274.299-.224.772.1 1.045l1.84 1.617"/><path id="g" d="M698.731 2793.197l-1.617 1.369a.755.755 0 0 0-.1 1.07l.324.398a.755.755 0 0 0 1.07.1l1.468-1.245 5.523 4.877 3.334-3.807a.75.75 0 0 0 .1-1.045"/><path id="h" d="M699.23 2795.437l.845-.697a1.794 1.794 0 0 1 2.19-.075l.422.324"/></defs><g opacity=".7"><use fill="#fff" fill-opacity="0" stroke="#fff" stroke-miterlimit="50" xlink:href="#a" opacity=".7" transform="translate(-688 -2791)"/><use fill="#fff" fill-opacity="0" stroke="#fff" stroke-miterlimit="50" xlink:href="#b" opacity=".7" transform="translate(-688 -2791)"/><use fill="#fff" fill-opacity="0" stroke="#fff" stroke-miterlimit="50" xlink:href="#c" opacity=".7" transform="translate(-688 -2791)"/><use fill="#fff" fill-opacity="0" stroke="#fff" stroke-miterlimit="50" xlink:href="#d" opacity=".7" transform="translate(-688 -2791)"/><use fill="#fff" fill-opacity="0" stroke="#fff" stroke-miterlimit="50" xlink:href="#e" opacity=".7" transform="translate(-688 -2791)"/><use fill="#fff" fill-opacity="0" stroke="#fff" stroke-miterlimit="50" xlink:href="#f" opacity=".7" transform="translate(-688 -2791)"/><use fill="#fff" fill-opacity="0" stroke="#fff" stroke-miterlimit="50" xlink:href="#g" opacity=".7" transform="translate(-688 -2791)"/><use fill="#fff" fill-opacity="0" stroke="#fff" stroke-miterlimit="50" xlink:href="#h" opacity=".7" transform="translate(-688 -2791)"/></g></svg>