<svg xmlns="http://www.w3.org/2000/svg" xmlns:xlink="http://www.w3.org/1999/xlink" width="17" height="30" viewBox="0 0 17 30"><defs><path id="53g8a" d="M307.966 2323.23l-2.93-1.994-3.01-8.34c-.122-.448.203-.896.65-.896h13.671c.448 0 .773.448.61.895l-2.97 8.381-4.516 1.994v2.766a7.04 7.04 0 0 1 6.998 7.812c-.366 3.214-2.97 5.818-6.184 6.184-4.19.488-7.812-2.807-7.812-6.957 0-3.54 2.604-6.428 5.981-6.957"/><path id="53g8b" d="M305.972 2312v9.48"/><path id="53g8c" d="M313.01 2312v9.48"/><path id="53g8d" d="M309.512 2312v9.48"/><path id="53g8e" d="M309.715 2329.129l.773 2.36c.041.08.082.121.163.121h2.482c.163 0 .244.204.122.326l-1.994 1.465c-.08.04-.08.122-.08.203l.772 2.36c.04.162-.122.285-.285.203l-1.993-1.465c-.082-.04-.163-.04-.204 0l-1.993 1.465c-.122.082-.326-.04-.285-.203l.773-2.36c.04-.081 0-.163-.081-.203l-1.994-1.465c-.122-.082-.081-.326.122-.326h2.482c.081 0 .163-.04.163-.122l.773-2.36c0-.162.203-.162.284 0z"/></defs><g><g opacity=".7" transform="translate(-301 -2311)"><g opacity=".7"><use fill="#fff" fill-opacity="0" stroke="#fff" stroke-miterlimit="50" xlink:href="#53g8a"/></g><g opacity=".7"><use fill="#fff" fill-opacity="0" stroke="#fff" stroke-miterlimit="50" xlink:href="#53g8b"/></g><g opacity=".7"><use fill="#fff" fill-opacity="0" stroke="#fff" stroke-miterlimit="50" xlink:href="#53g8c"/></g><g opacity=".7"><use fill="#fff" fill-opacity="0" stroke="#fff" stroke-miterlimit="50" xlink:href="#53g8d"/></g><g opacity=".7"><use fill="#fff" fill-opacity="0" stroke="#fff" stroke-miterlimit="50" xlink:href="#53g8e"/></g></g></g></svg>