<svg xmlns="http://www.w3.org/2000/svg" xmlns:xlink="http://www.w3.org/1999/xlink" width="17" height="23" viewBox="0 0 17 23"><defs><path id="gqw0a" d="M301.933 2552.564a4.126 4.126 0 1 1 8.252 0 4.126 4.126 0 0 1-8.252 0z"/><path id="gqw0b" d="M308.618 2553.62a2.757 2.757 0 0 1-2.559 1.727 2.785 2.785 0 0 1-2.783-2.783 2.785 2.785 0 0 1 2.783-2.782 2.77 2.77 0 0 1 2.623 1.855"/><path id="gqw0c" d="M310.217 2557.49l3.326 8.923-1.919-.48-1.183 1.6-3.39-8.7"/><path id="gqw0d" d="M311.4 2565.358l-2.686-7.324"/><path id="gqw0e" d="M304.492 2558.61a2.22 2.22 0 0 0 3.134 0c.416-.417.992-.64 1.567-.64a2.211 2.211 0 0 0 2.207-2.207c0-.576.224-1.152.64-1.567a2.22 2.22 0 0 0 0-3.135 2.228 2.228 0 0 1-.64-1.567 2.211 2.211 0 0 0-2.207-2.207 2.228 2.228 0 0 1-1.567-.64 2.22 2.22 0 0 0-3.134 0c-.416.416-.992.64-1.567.64a2.211 2.211 0 0 0-2.207 2.207c0 .576-.224 1.152-.64 1.567-.895.832-.895 2.24-.032 3.103.416.415.64.991.64 1.567 0 .8.448 1.535 1.087 1.919l-3.23 8.763 1.951-.48 1.183 1.631 3.39-8.73"/><path id="gqw0f" d="M300.878 2565.23l2.814-7.1s.384.031.768.447"/></defs><g><g opacity=".7" transform="translate(-298 -2545)"><g opacity=".7"><use fill="#fff" fill-opacity="0" stroke="#fff" stroke-miterlimit="50" xlink:href="#gqw0a"/></g><g opacity=".7"><use fill="#fff" fill-opacity="0" stroke="#fff" stroke-miterlimit="50" xlink:href="#gqw0b"/></g><g opacity=".7"><g opacity=".7"><use fill="#fff" fill-opacity="0" stroke="#fff" stroke-miterlimit="50" xlink:href="#gqw0c"/></g><g opacity=".7"><use fill="#fff" fill-opacity="0" stroke="#fff" stroke-miterlimit="50" xlink:href="#gqw0d"/></g></g><g opacity=".7"><g opacity=".7"><use fill="#fff" fill-opacity="0" stroke="#fff" stroke-miterlimit="50" xlink:href="#gqw0e"/></g><g opacity=".7"><use fill="#fff" fill-opacity="0" stroke="#fff" stroke-miterlimit="50" xlink:href="#gqw0f"/></g></g></g></g></svg>