<svg xmlns="http://www.w3.org/2000/svg" xmlns:xlink="http://www.w3.org/1999/xlink" width="17" height="26" viewBox="0 0 17 26"><defs><path id="bimna" d="M698.5 2312.555v9.985c1.214 0 2.184.97 2.184 2.184 0 1.214-.97 2.185-2.184 2.185a2.175 2.175 0 0 1-2.184-2.185c0-.901.52-1.664 1.317-2.01"/><path id="bimnb" d="M703.527 2327.498a5.031 5.031 0 0 1-5.027 5.028c-2.774 0-4.993-2.254-4.993-5.028 0-2.774 4.993-15.498 4.993-15.498s5.027 12.724 5.027 15.498z"/><path id="bimnc" d="M703.25 2325.834s4.923 2.774 1.595 8.598c-.139.209-.45.174-.555-.069l-1.387-4.507"/><path id="bimnd" d="M693.75 2325.834s-4.923 2.774-1.595 8.598c.139.209.45.174.555-.069l1.387-4.507"/><path id="bimne" d="M700.199 2332.213l.797 2.011c.07.208-.069.416-.277.416h-4.091c-.208 0-.347-.208-.278-.416l.798-2.01"/><path id="bimnf" d="M700.199 2335.507v2.289"/><path id="bimng" d="M698.812 2335.507v2.289"/><path id="bimnh" d="M697.425 2335.507v2.289"/></defs><g><g opacity=".7" transform="translate(-690 -2312)"><g opacity=".7"><use fill="#fff" fill-opacity="0" stroke="#fff" stroke-miterlimit="50" xlink:href="#bimna"/></g><g opacity=".7"><use fill="#fff" fill-opacity="0" stroke="#fff" stroke-miterlimit="50" xlink:href="#bimnb"/></g><g opacity=".7"><use fill="#fff" fill-opacity="0" stroke="#fff" stroke-miterlimit="50" xlink:href="#bimnc"/></g><g opacity=".7"><use fill="#fff" fill-opacity="0" stroke="#fff" stroke-miterlimit="50" xlink:href="#bimnd"/></g><g opacity=".7"><use fill="#fff" fill-opacity="0" stroke="#fff" stroke-miterlimit="50" xlink:href="#bimne"/></g><g opacity=".7"><g opacity=".7"><use fill="#fff" fill-opacity="0" stroke="#fff" stroke-miterlimit="50" xlink:href="#bimnf"/></g><g opacity=".7"><use fill="#fff" fill-opacity="0" stroke="#fff" stroke-miterlimit="50" xlink:href="#bimng"/></g><g opacity=".7"><use fill="#fff" fill-opacity="0" stroke="#fff" stroke-miterlimit="50" xlink:href="#bimnh"/></g></g></g></g></svg>