<svg xmlns="http://www.w3.org/2000/svg" xmlns:xlink="http://www.w3.org/1999/xlink" width="22" height="8" viewBox="0 0 22 8"><defs><path id="ayaea" d="M701.67 2560.59l-5.195.022a.41.41 0 0 1-.41-.41l-.021-5.044a.41.41 0 0 1 .41-.41l5.195-.021z"/><path id="ayaeb" d="M696.065 2559.815l-4.484.021a.41.41 0 0 1-.41-.41l-.021-3.449a.41.41 0 0 1 .41-.41l4.484-.043z"/><path id="ayaec" d="M685.246 2558.855l-.008-2.285 5.908-.021.008 2.285z"/><path id="ayaed" d="M685.264 2558.823l-1.897.323c-.195.043-.367-.107-.367-.323v-2.285c0-.194.172-.345.367-.324l1.897.324z"/><path id="ayaee" d="M701.65 2554.727s2.565 2.134.624 5.476"/></defs><g><g opacity=".7" transform="translate(-682 -2554)"><g opacity=".7"><g opacity=".7"><g opacity=".7"><use fill="#fff" fill-opacity="0" stroke="#fff" stroke-miterlimit="50" xlink:href="#ayaea"/></g><g opacity=".7"><use fill="#fff" fill-opacity="0" stroke="#fff" stroke-miterlimit="50" xlink:href="#ayaeb"/></g><g opacity=".7"><use fill="#fff" fill-opacity="0" stroke="#fff" stroke-miterlimit="50" xlink:href="#ayaec"/></g><g opacity=".7"><use fill="#fff" fill-opacity="0" stroke="#fff" stroke-miterlimit="50" xlink:href="#ayaed"/></g></g><g opacity=".7"><use fill="#fff" fill-opacity="0" stroke="#fff" stroke-miterlimit="50" xlink:href="#ayaee"/></g></g></g></g></svg>