<svg xmlns="http://www.w3.org/2000/svg" xmlns:xlink="http://www.w3.org/1999/xlink" width="22" height="21" viewBox="0 0 22 21"><defs><path id="3x0ja" d="M311.91 2793.834h5.534a.55.55 0 0 1 .331.995l-5.235 3.777c-.2.133-.265.398-.2.597l1.99 6.097c.165.497-.398.928-.83.596l-5.202-3.744c-.199-.133-.464-.133-.63 0l-5.202 3.778c-.43.298-.994-.1-.828-.597 0 0 1.855-10.272 14.878-14.282"/><path id="3x0jb" d="M303.427 2798.606l-5.202-3.777c-.431-.299-.2-.995.33-.995h6.43c.231 0 .43-.165.53-.364l1.988-6.097a.54.54 0 0 1 1.027 0l1.69 5.17"/></defs><g><g opacity=".7" transform="translate(-297 -2786)"><g opacity=".7"><use fill="#fff" fill-opacity="0" stroke="#fff" stroke-miterlimit="50" xlink:href="#3x0ja"/></g><g opacity=".7"><use fill="#fff" fill-opacity="0" stroke="#fff" stroke-miterlimit="50" xlink:href="#3x0jb"/></g></g></g></svg>