<svg xmlns="http://www.w3.org/2000/svg" xmlns:xlink="http://www.w3.org/1999/xlink" width="40" height="40" viewBox="0 0 40 40"><defs><path id="sr3ta" d="M808 1376v-40h40v40z"/><path id="sr3tc" d="M828 1336.949h-3.691v5.531l-3.68 1.234-3.692-3.691-4.914 4.914 3.691 3.692-1.234 3.68h-5.531v7.382h5.531l1.234 3.68-3.691 3.692 4.914 4.914 3.692-3.691 3.68 1.234v5.531h7.382v-5.531l3.68-1.234 3.692 3.691 4.914-4.914-3.691-3.692 1.234-3.68h5.531v-7.382h-5.531l-1.234-3.68 3.691-3.692-4.914-4.914-3.692 3.691-3.68-1.234v-5.531z"/><path id="sr3td" d="M824.309 1356a3.691 3.691 0 1 1 7.382 0 3.691 3.691 0 0 1-7.382 0z"/><clipPath id="sr3tb"><use xlink:href="#sr3ta"/></clipPath></defs><g><g transform="translate(-808 -1336)"><g/><g clip-path="url(#sr3tb)"><use fill="#fff" fill-opacity="0" stroke="#d4583e" stroke-miterlimit="50" stroke-width="1.67" xlink:href="#sr3tc"/></g><g clip-path="url(#sr3tb)"><use fill="#fff" fill-opacity="0" stroke="#d4583e" stroke-miterlimit="50" stroke-width="1.67" xlink:href="#sr3td"/></g></g></g></svg>