<svg xmlns="http://www.w3.org/2000/svg" xmlns:xlink="http://www.w3.org/1999/xlink" width="36" height="41" viewBox="0 0 36 41"><defs><path id="wjp8a" d="M381.652 851.874l-3.214-36.009h35.273l-3.215 36-14.442 4z"/><path id="wjp8b" d="M396.074 832.162h-5.845l-.403-4.515h6.248v-4.425H384.998l.111 1.19 1.089 12.164h9.876z"/><path id="wjp8c" d="M396.074 843.63l-.02.01-4.918-1.33-.313-3.527H386.39l.615 6.934 9.05 2.52.02-.011z"/><path id="wjp8d" d="M396.054 832.162v4.414h5.442l-.514 5.724-4.928 1.33v4.596l9.06-2.51.06-.745 1.039-11.62.11-1.19h-1.189z"/><path id="wjp8e" d="M396.054 823.222V827.646h10.673l.09-.997.202-2.238.1-1.189z"/></defs><g><g transform="translate(-378 -815)"><g><use fill="#db3021" xlink:href="#wjp8a"/></g><g><use fill="#fff" xlink:href="#wjp8b"/></g><g><use fill="#fff" xlink:href="#wjp8c"/></g><g><use fill="#fff" xlink:href="#wjp8d"/></g><g><use fill="#fff" xlink:href="#wjp8e"/></g></g></g></svg>