<svg xmlns="http://www.w3.org/2000/svg" xmlns:xlink="http://www.w3.org/1999/xlink" width="41" height="40" viewBox="0 0 41 40"><defs><path id="3ikea" d="M400.8 1107.922l-3.946-3.954-3.854 3.863-3.946 3.95-.772.776a3.285 3.285 0 0 1-4.649-.004 3.292 3.292 0 0 1-.013-4.631l-3.95-3.954a8.874 8.874 0 0 0-2.304 8.46 5.354 5.354 0 0 0-4.119 5.212 5.355 5.355 0 0 0 5.352 5.356 5.361 5.361 0 0 0 5.217-4.154 8.85 8.85 0 0 0 8.411-2.335l.777-.773 3.945-3.958z"/><path id="3ikeb" d="M413.204 1088.356a5.355 5.355 0 0 0-5.352-5.356 5.355 5.355 0 0 0-5.3 4.618 8.87 8.87 0 0 0-8.775 2.244l-4.723 4.722-3.858 3.863 3.95 3.954 3.858-3.863 3.95-3.95.768-.772a3.278 3.278 0 0 1 4.648 4.627v.004l3.95 3.95a8.894 8.894 0 0 0 2.24-8.724 5.357 5.357 0 0 0 4.644-5.317z"/><path id="3ikec" d="M408.655 1112.34a8.877 8.877 0 0 0-2.348-8.38l-.773-.778-3.95-3.954-3.845-3.858v.004l-3.95 3.95 3.85 3.858 3.946 3.954.772.773a3.293 3.293 0 0 1 .009 4.648 3.282 3.282 0 0 1-4.627.009l-3.945 3.954h-.004a8.867 8.867 0 0 0 8.867 2.196A5.354 5.354 0 0 0 407.9 1123a5.355 5.355 0 0 0 5.351-5.356 5.35 5.35 0 0 0-4.596-5.304z"/><path id="3iked" d="M388.269 1110.995l3.945-3.95h.004l-3.862-3.863-3.946-3.95-.777-.772a3.298 3.298 0 0 1 .01-4.653 3.282 3.282 0 0 1 4.626-.013l3.95-3.954a8.847 8.847 0 0 0-8.286-2.352 5.358 5.358 0 0 0-5.282-4.488 5.351 5.351 0 0 0-5.348 5.356 5.36 5.36 0 0 0 4.167 5.23 8.872 8.872 0 0 0 2.218 8.828l.773.768 3.95 3.954z"/></defs><g><g transform="translate(-373 -1083)"><g><use fill="#1565c0" xlink:href="#3ikea"/></g><g><use fill="#ff9800" xlink:href="#3ikeb"/></g><g><use fill="#f44336" xlink:href="#3ikec"/></g><g><use fill="#4caf50" xlink:href="#3iked"/></g></g></g></svg>