<svg xmlns="http://www.w3.org/2000/svg" xmlns:xlink="http://www.w3.org/1999/xlink" width="36" height="40" viewBox="0 0 36 40"><defs><path id="97zba" d="M979.397 825.498l-3.212-.242-2.37-2.349a.584.584 0 0 0-.33-.15L971.758 858l12.346-2.669s-4.366-29.361-4.366-29.514a.381.381 0 0 0-.351-.319"/><path id="97zbb" d="M982.569 851.728l.25 1.672z"/><path id="97zbc" d="M982.268 849.668l.3 2.06z"/><path id="97zbd" d="M978.734 825.818l2.6 17.569z"/><path id="97zbe" d="M967.562 824.142v-.41a9.433 9.433 0 0 0-.461-3.11c1.144.137 1.897 1.433 2.388 2.93zm-1.355.42l-4.015 1.235c.763-2.961 2.208-4.385 3.463-4.927a9.554 9.554 0 0 1 .522 3.473c.03.078.03.15.03.22zm-8.713 2.702c.874-3.01 2.952-7.838 6.655-7.838.239.005.47.08.663.22-1.656.773-3.423 2.729-4.166 6.644zm25.637 28.007l-12.347 2.67-.027-.006-.003.054zm-10.65-32.513a1.3 1.3 0 0 0-.542 0l-1.195.372c-.713-2.01-2.007-3.934-4.185-3.934h-.191A2.686 2.686 0 0 0 964.29 818c-5.15 0-7.619 6.443-8.382 9.715l-3.603 1.115c-1.114.352-1.154.382-1.295 1.436-.11.792-3.011 23.409-3.011 23.409l22.758 4.26z"/><path id="97zbf" d="M981.334 843.386l.412 2.66z"/><path id="97zbg" d="M972.551 822.767h.07z"/><path id="97zbh" d="M966.559 832.31l-1.526 4.53a7.003 7.003 0 0 0-3.011-.711c-2.4-.003-2.52 1.504-2.52 1.884 0 2.068 5.39 2.861 5.39 7.71 0 3.814-2.419 6.262-5.681 6.262a7.903 7.903 0 0 1-5.912-2.44l1.003-3.459s2.008 1.767 3.795 1.767c.42.02.83-.136 1.132-.43.302-.291.47-.695.464-1.118 0-2.701-4.427-2.822-4.427-7.245 0-3.738 2.68-7.34 8.08-7.34a6.677 6.677 0 0 1 3.112.59"/></defs><g><g transform="translate(-948 -818)"><g><use fill="#adc941" xlink:href="#97zba"/></g><g><use fill="#95bf47" xlink:href="#97zbb"/></g><g><use fill="#95bf47" xlink:href="#97zbc"/></g><g><use fill="#95bf47" xlink:href="#97zbd"/></g><g><use fill="#adc941" xlink:href="#97zbe"/></g><g><use fill="#95bf47" xlink:href="#97zbf"/></g><g><use fill="#95bf47" xlink:href="#97zbg"/></g><g><use fill="#fff" xlink:href="#97zbh"/></g></g></g></svg>