<svg xmlns="http://www.w3.org/2000/svg" xmlns:xlink="http://www.w3.org/1999/xlink" width="45" height="27" viewBox="0 0 45 27"><defs><path id="ss0qa" d="M456.181 787.56a1.939 1.939 0 0 0-1.91 1.14 5.997 5.997 0 0 0-1 2.19c-.09.441-.134.89-.13 1.34.007.573.119 1.14.33 1.67a1.671 1.671 0 0 0 1.09 1.2 1.77 1.77 0 0 0 1.49-.59 4.868 4.868 0 0 0 1.4-2.719c.083-.45.126-.904.13-1.36a4.667 4.667 0 0 0-.33-1.67 1.67 1.67 0 0 0-1.07-1.201z"/><path id="ss0qb" d="M444.691 787.56a1.939 1.939 0 0 0-1.91 1.14 5.996 5.996 0 0 0-1 2.19c-.09.441-.134.89-.13 1.34.007.573.119 1.14.33 1.67a1.671 1.671 0 0 0 1.09 1.2 1.77 1.77 0 0 0 1.49-.59 4.868 4.868 0 0 0 1.4-2.719c.092-.448.135-.904.13-1.361a4.67 4.67 0 0 0-.33-1.67 1.67 1.67 0 0 0-1.07-1.2z"/><path id="ss0qc" d="M459.291 795.53a4.921 4.921 0 0 1-4.32 2.76 4.784 4.784 0 0 1-1-.11 4.24 4.24 0 0 1-2.94-2.131 7.124 7.124 0 0 1-.88-3.639 9.75 9.75 0 0 1 1.43-5.19 5 5 0 0 1 4.32-2.761c.336.001.672.039 1 .11a4.24 4.24 0 0 1 2.94 2.131 7.003 7.003 0 0 1 .88 3.62 9.86 9.86 0 0 1-1.44 5.21zm-11.54 0a4.921 4.921 0 0 1-4.32 2.76 4.785 4.785 0 0 1-1-.11 4.24 4.24 0 0 1-2.94-2.131 7.123 7.123 0 0 1-.88-3.639 9.75 9.75 0 0 1 1.44-5.19 5 5 0 0 1 4.32-2.761c.337.001.672.039 1 .11a4.275 4.275 0 0 1 2.94 2.131 7.001 7.001 0 0 1 .88 3.62 9.86 9.86 0 0 1-1.45 5.21zm-11.3 2.89c.045.416-.032.836-.22 1.21-.19.384-.572.636-1 .66a1.852 1.852 0 0 1-1.45-.68 18.205 18.205 0 0 1-4.07-7.84 385.41 385.41 0 0 0-2.65 5.3c-1.09 2.08-2 3.15-2.78 3.2-.5 0-.92-.39-1.29-1.269-.94-2.413-1.94-7.08-3-14a1.64 1.64 0 0 1 .29-1.23 1.484 1.484 0 0 1 1.16-.57 1.34 1.34 0 0 1 1.6 1.32c.573 3.846 1.193 7.102 1.86 9.769l4-7.67a1.75 1.75 0 0 1 1.38-1.099c.81-.06 1.31.46 1.51 1.55a34.37 34.37 0 0 0 1.75 6.29c.48-4.668 1.29-8.04 2.43-10.12a1.41 1.41 0 0 1 1.21-.81 1.6 1.6 0 0 1 1.16.37c.32.239.527.601.57 1 .025.303-.037.61-.18.88a22.278 22.278 0 0 0-1.78 6.64 34.263 34.263 0 0 0-.5 7.09zm22.39-18.42h-36.66a4.185 4.185 0 0 0-4.18 4.19v14a4.19 4.19 0 0 0 4.19 4.19h17.35l7.93 4.42-1.8-4.42h13.14a4.19 4.19 0 0 0 4.19-4.19v-14a4.19 4.19 0 0 0-4.16-4.191z"/></defs><g><g transform="translate(-418 -780)"><g><use fill="#be54b8" xlink:href="#ss0qa"/></g><g><use fill="#be54b8" xlink:href="#ss0qb"/></g><g><use fill="#be54b8" xlink:href="#ss0qc"/></g></g></g></svg>