<svg xmlns="http://www.w3.org/2000/svg" xmlns:xlink="http://www.w3.org/1999/xlink" width="41" height="41" viewBox="0 0 41 41"><defs><path id="f53sa" d="M668.236 849.849a20.157 20.157 0 0 1-4.27-6.386 19.7 19.7 0 0 1 0-15.507 19.682 19.682 0 0 1 10.655-10.65 19.672 19.672 0 0 1 15.508 0 19.68 19.68 0 0 1 10.655 10.65 19.694 19.694 0 0 1 0 15.507 19.723 19.723 0 0 1-10.655 10.657 19.663 19.663 0 0 1-15.508 0c-2.383-1-4.551-2.45-6.385-4.271zm30.045-20.921a20.601 20.601 0 0 1-1.38 6.457l-5.5 15.856a17.883 17.883 0 0 0 6.527-6.513 17.434 17.434 0 0 0 2.428-9.015 17.768 17.768 0 0 0-2.221-8.635c.096.611.144 1.23.143 1.85zm-20.981 24.02c1.645.502 3.356.755 5.076.75a18.002 18.002 0 0 0 5.965-1.027.548.548 0 0 1-.117-.257l-5.544-15.136zm15.741-23.106l-.328-.536c-.171-.285-.285-.472-.338-.564-.053-.093-.152-.257-.293-.492-.106-.17-.2-.346-.28-.53a14.082 14.082 0 0 0-.211-.485 2.926 2.926 0 0 1-.188-.543 10.593 10.593 0 0 1-.093-.5 3.44 3.44 0 0 1-.047-.564 3.19 3.19 0 0 1 .866-2.23 2.792 2.792 0 0 1 2.152-.95h.233a18.085 18.085 0 0 0-5.578-3.484 18.012 18.012 0 0 0-15.158.95 17.897 17.897 0 0 0-6.42 5.929c.155 0 .357 0 .608.012.25.016.428.009.537.009l4.795-.236a.698.698 0 0 1 .668.32c.147.214.169.49.057.722a.696.696 0 0 1-.607.436c-.655.08-1.342.136-2.059.186l6.55 19.464 3.929-11.793-2.808-7.671-1.87-.186a.736.736 0 0 1-.457-.186.683.683 0 0 1-.21-.386.925.925 0 0 1 .035-.435.674.674 0 0 1 .269-.35c.14-.096.31-.14.48-.121 1.98.143 3.555.221 4.724.236l4.795-.236a.698.698 0 0 1 .667.32c.147.214.17.49.059.722a.7.7 0 0 1-.609.436c-.655.08-1.341.136-2.058.186l6.5 19.321 1.777-5.985c.063-.207.2-.657.41-1.357.21-.7.346-1.164.409-1.386.063-.22.152-.557.269-1.028.1-.38.178-.768.234-1.157.039-.299.058-.6.059-.9a9.73 9.73 0 0 0-1.474-4.958zm-25.87 15.486a17.814 17.814 0 0 0 7.368 6.57l-8.584-23.506a17.739 17.739 0 0 0-1.567 7.321 17.478 17.478 0 0 0 2.783 9.615z"/></defs><g><g transform="translate(-662 -815)"><use fill="#1176e8" xlink:href="#f53sa"/></g></g></svg>