<svg xmlns="http://www.w3.org/2000/svg" xmlns:xlink="http://www.w3.org/1999/xlink" width="13" height="12" viewBox="0 0 13 12"><defs><path id="f42ua" d="M294.508 3115.265a3.062 3.062 0 0 1-2.315-.462l-1.015-.68a3.088 3.088 0 0 1-.848-4.279 3.088 3.088 0 0 1 4.28-.846l1.014.68.01.006a3.065 3.065 0 0 1 1.3 1.957c.16.808-.004 1.63-.462 2.315a3.065 3.065 0 0 1-1.964 1.31zm2.456-7.554l-.016-.01v-.001l-1.015-.68a5.47 5.47 0 0 0-7.58 1.502 5.47 5.47 0 0 0 1.486 7.57l.016.01 1.014.679a5.43 5.43 0 0 0 4.101.819 5.428 5.428 0 0 0 3.479-2.32 5.469 5.469 0 0 0-1.485-7.57z"/><linearGradient id="f42ub" x1="303.78" x2="277.67" y1="3106.26" y2="3116.55" gradientUnits="userSpaceOnUse"><stop offset="0" stop-color="#5aa8ff"/><stop offset="1" stop-color="#a01a23"/></linearGradient></defs><g><g transform="translate(-287 -3106)"><use fill="url(#f42ub)" xlink:href="#f42ua"/></g></g></svg>