<svg xmlns="http://www.w3.org/2000/svg" xmlns:xlink="http://www.w3.org/1999/xlink" width="12" height="12" viewBox="0 0 12 12"><defs><path id="y1oya" d="M521.2 5169.265a3.062 3.062 0 0 1-2.316-.462l-1.014-.68a3.088 3.088 0 0 1-.848-4.279 3.088 3.088 0 0 1 4.279-.846l1.015.68.009.006a3.065 3.065 0 0 1 1.3 1.957c.16.808-.004 1.63-.462 2.315a3.065 3.065 0 0 1-1.964 1.31zm2.455-7.554l-.016-.01v-.001l-1.014-.68a5.47 5.47 0 0 0-7.58 1.502 5.47 5.47 0 0 0 1.485 7.57l.016.01 1.015.679a5.43 5.43 0 0 0 4.1.819 5.428 5.428 0 0 0 3.48-2.32 5.469 5.469 0 0 0-1.486-7.57z"/><linearGradient id="y1oyb" x1="530.48" x2="504.35" y1="5160.26" y2="5170.53" gradientUnits="userSpaceOnUse"><stop offset="0" stop-color="#0e6a6f"/><stop offset="1" stop-color="#33d4de"/></linearGradient></defs><g><g transform="translate(-514 -5160)"><use fill="url(#y1oyb)" xlink:href="#y1oya"/></g></g></svg>