<svg xmlns="http://www.w3.org/2000/svg" xmlns:xlink="http://www.w3.org/1999/xlink" width="11" height="11" viewBox="0 0 11 11"><defs><path id="a" d="M641.006 407.826l.005 1.433.048.104a.535.535 0 0 0 .293.31l.142.07h9.767l.104-.049a.535.535 0 0 0 .309-.293l.07-.141.005-1.434.007-1.434h-1.346v2.016h-8.065v-2.016H641l.006 1.434m4.7-5.933v2.893l-1.344-1.344-1.345-1.344-.467.467-.467.467 1.953 1.954c2.177 2.178 2.053 2.068 2.342 2.068.289 0 .164.11 2.342-2.068l1.952-1.954-.467-.467-.467-.467-1.344 1.344-1.344 1.344V399h-1.344v2.893"/></defs><use fill="#030303" xlink:href="#a" transform="translate(-641 -399)"/></svg>