<svg xmlns="http://www.w3.org/2000/svg" xmlns:xlink="http://www.w3.org/1999/xlink" width="51" height="51" viewBox="0 0 51 51"><defs><path id="a" d="M708.967 292.488c0-14.077-11.409-25.488-25.483-25.488S658 278.411 658 292.488s11.41 25.488 25.484 25.488c14.074 0 25.483-11.411 25.483-25.488z"/><path id="b" d="M699.204 272.427a25.382 25.382 0 0 1 5.426 15.723c0 14.076-11.41 25.488-25.484 25.488a25.373 25.373 0 0 1-15.72-5.427c4.665 5.945 11.915 9.765 20.058 9.765 14.074 0 25.483-11.411 25.483-25.488 0-8.144-3.818-15.396-9.763-20.061z"/><path id="c" d="M685.102 296.77h-3.237c-.64 0-1.16-.52-1.16-1.162v-14.655c0-.642.52-1.161 1.16-1.161h3.237c.64 0 1.16.52 1.16 1.16v14.656a1.16 1.16 0 0 1-1.16 1.161z"/><path id="d" d="M685.102 279.792h-2.097c.64 0 1.16.52 1.16 1.16v14.656a1.16 1.16 0 0 1-1.16 1.161h2.097c.641 0 1.16-.52 1.16-1.16v-14.656a1.16 1.16 0 0 0-1.16-1.161z"/><path id="e" d="M683.484 306.009a2.78 2.78 0 1 1 2.78-2.78 2.78 2.78 0 0 1-2.78 2.78z"/><path id="f" d="M683.484 300.45c-.224 0-.441.027-.65.077a2.78 2.78 0 0 1 0 5.405 2.78 2.78 0 1 0 .65-5.482z"/></defs><use fill="#a1f369" xlink:href="#a" transform="translate(-658 -267)"/><use fill="#82de44" xlink:href="#b" transform="translate(-658 -267)"/><use fill="#fff" xlink:href="#c" transform="translate(-658 -267)"/><use fill="#e2ffd2" xlink:href="#d" transform="translate(-658 -267)"/><use fill="#fff" xlink:href="#e" transform="translate(-658 -267)"/><use fill="#e2ffd2" xlink:href="#f" transform="translate(-658 -267)"/></svg>