<svg xmlns="http://www.w3.org/2000/svg" xmlns:xlink="http://www.w3.org/1999/xlink" width="148" height="193" viewBox="0 0 148 193"><defs><path id="b" d="M310.255 4416.227a1.127 1.127 0 0 1-.586-2.092c.247-.15 24.498-15.345 24.91-59.713.16-17.168 7.164-22.141 11.323-23.578 6.206-2.141 13.652.768 18.967 7.42 6.883 8.611 10.33 24.112-.627 41.794a1.127 1.127 0 1 1-1.916-1.189c10.34-16.682 7.184-31.187.782-39.197-4.71-5.894-11.17-8.524-16.47-6.697-6.124 2.115-9.697 9.94-9.805 21.469-.422 45.71-24.956 60.993-26 61.622a1.14 1.14 0 0 1-.578.161z"/><path id="d" d="M352.694 4341.803c-1.356 0-3.644 1.498-6.838 8.636-1.132 2.532-1.086 5.213.13 7.356.799 1.41 2.032 2.377 3.218 2.52 4.043.494 5.835-1.417 7.03-7.994 1.368-7.512.163-9.338-2.868-10.4a1.982 1.982 0 0 0-.672-.118zm-2.397 20.835c-.43 0-.883-.028-1.361-.086-1.913-.229-3.75-1.591-4.912-3.646-1.572-2.774-1.653-6.195-.224-9.387 3.52-7.871 6.893-10.923 10.31-9.725 5.264 1.841 5.579 6.136 4.344 12.932-.936 5.148-2.574 9.912-8.157 9.912z"/><path id="f" d="M341.646 4376.348a1.13 1.13 0 0 1-1.07-1.484c.102-.297 2.543-7.241 13.536-5.638 1.572.229 3.027-.251 4.459-1.462 5.93-5.033 8.467-20.175 8.485-21.143.01-.619.53-1.178 1.138-1.115a1.12 1.12 0 0 1 1.116 1.118c0 1.013-2.56 17.049-9.2 22.789-1.949 1.682-4.085 2.369-6.324 2.045-9.139-1.345-11.052 4.064-11.07 4.12-.158.47-.599.77-1.07.77z"/><path id="h" d="M318.313 4424.29a1.127 1.127 0 0 1-.824-1.898c.19-.203 18.979-20.397 24.564-38.803-.013.003.524-3.546 3.765-5.488 2.737-1.64 6.453-1.61 11.068.094.583.214.883.863.667 1.447a1.121 1.121 0 0 1-1.446.667c-3.937-1.447-7.008-1.543-9.13-.273-2.334 1.398-2.724 4.011-2.729 4.038-5.777 19.084-24.326 39.02-25.112 39.859a1.124 1.124 0 0 1-.823.357z"/><path id="j" d="M331.466 4433.411a1.127 1.127 0 0 1-1.096-1.39c4.47-18.744 29.953-45.825 31.034-46.967a1.13 1.13 0 0 1 1.594-.044 1.13 1.13 0 0 1 .044 1.594c-.262.275-26.147 27.782-30.48 45.942a1.127 1.127 0 0 1-1.096.865z"/><path id="l" d="M341.226 4438.076a1.126 1.126 0 0 1-1.112-1.325c1.512-8.437 27.52-43.532 28.628-45.02 11.264-23.27 13.699-41.713 7.125-54.637-6.56-12.898-20.073-15.468-20.21-15.492-5.48-1.228-10.352-.388-14.515 2.491-10.998 7.606-13.838 26.91-13.864 27.105-3.39 40.91-20.71 54.287-21.444 54.835a1.128 1.128 0 0 1-1.35-1.805c.172-.128 17.25-13.43 20.555-53.28.123-.899 3.02-20.548 14.821-28.71 4.699-3.251 10.166-4.208 16.244-2.845.553.098 14.71 2.793 21.773 16.68 6.911 13.587 4.483 32.704-7.215 56.82-9.372 12.656-27.193 37.918-28.329 44.254-.097.546-.572.93-1.107.93z"/><path id="n" d="M350.98 4442.32a1.126 1.126 0 0 1-.807-1.916c.315-.322 31.17-32.125 18.607-47.281a1.128 1.128 0 0 1 1.735-1.44c13.855 16.713-17.394 48.934-18.73 50.297a1.122 1.122 0 0 1-.806.34z"/><path id="p" d="M363.284 4445.5a1.126 1.126 0 0 1-.931-1.761c11.006-16.187 27.342-44.007 24.328-49.751-.436-1.116-3.734-9.947-2.388-13.444 5.16-13.42 5.017-32.245 5.015-32.43-.006-.622.493-1.53 1.114-1.53h.013c.617 0 1.12.888 1.127 1.505.01.772.152 19.237-5.165 33.07-.781 2.03 1.018 8.356 2.334 11.804 4.58 8.708-21.523 47.596-24.515 51.995-.218.322-.573.543-.932.543z"/><path id="r" d="M377.921 4444.864a1.125 1.125 0 0 1-.962-1.713c51.125-83.963 23.023-126.476 22.732-126.895a1.127 1.127 0 0 1 1.852-1.285c.3.43 29.304 44.015-22.66 129.352a1.12 1.12 0 0 1-.962.541z"/><path id="t" d="M388.11 4426.729a1.126 1.126 0 0 1-.933-1.76c9.038-13.379 15.242-15.133 15.502-15.202 15.343-4.978 10.876-32.173 10.828-32.448a1.13 1.13 0 0 1 .922-1.301 1.142 1.142 0 0 1 1.301.922c.205 1.198 4.822 29.4-12.417 34.99-.106.03-5.81 1.78-14.27 14.303a1.125 1.125 0 0 1-.933.496z"/><path id="v" d="M391.708 4436.804a1.128 1.128 0 0 1-.452-2.16c16.009-6.98 27.14-27.094 27.253-27.296a1.126 1.126 0 1 1 1.977 1.083c-.467.852-11.62 20.995-28.327 28.278-.147.064-.3.095-.451.095z"/><path id="x" d="M423.526 4398.438h-.015c-.616 0-1.112-.2-1.112-.816 0-.493.179-.99.476-2.063 1.127-4.075 3.767-13.547-2.424-23.42-7.986-12.732-5.361-28.914-5.247-29.598.104-.615.709-.997 1.3-.905.613.103 1.027.693.924 1.308-.027.16-2.587 16.074 4.934 28.067 6.717 10.713 3.892 20.934 2.686 25.295-.183.658-.388 1.108-.394 1.317-.018.612-.518.815-1.128.815z"/><path id="z" d="M419.072 4315.68c-.47 0-.909-.297-1.067-.767-6.99-20.764-24.954-30.664-25.135-30.762a1.126 1.126 0 1 1 1.07-1.984c.771.416 18.93 10.428 26.2 32.026a1.127 1.127 0 0 1-1.068 1.487z"/><path id="B" d="M366.254 4259.68c-.281 0-.563-.105-.781-.317-5.454-5.256-14.232-3.953-14.318-3.94-.625.111-1.19-.324-1.288-.938a1.126 1.126 0 0 1 .936-1.289c.398-.066 9.96-1.506 16.233 4.545a1.127 1.127 0 0 1-.782 1.938z"/><path id="D" d="M307.283 4271.77a1.128 1.128 0 0 1-.867-1.847c.303-.366 7.533-9.013 13.782-10.352a1.128 1.128 0 0 1 .471 2.204c-5.485 1.176-12.449 9.505-12.519 9.588a1.123 1.123 0 0 1-.867.408z"/><path id="F" d="M294.98 4290.013a1.126 1.126 0 0 1-.85-1.868c.394-.455 40.28-45.083 98.302-15.538a1.127 1.127 0 0 1-1.021 2.01c-29.48-15.01-53.867-10.15-69.137-3.43-16.599 7.304-26.348 18.33-26.445 18.44a1.127 1.127 0 0 1-.85.386z"/><path id="H" d="M353.313 4264.558a1.12 1.12 0 0 1-.711-.253c-11.922-9.696-26.83-5.56-26.977-5.519a1.127 1.127 0 0 1-.626-2.166c.657-.19 16.2-4.497 29.025 5.937a1.126 1.126 0 0 1-.711 2.001z"/><path id="J" d="M308.764 4390.774a1.125 1.125 0 0 1-1.12-1.037c-.011-.14-.938-14.034 15.094-21.064a1.132 1.132 0 0 1 1.486.58 1.13 1.13 0 0 1-.579 1.485c-14.581 6.392-13.765 18.695-13.756 18.818.05.62-.411 1.165-1.032 1.213-.031.002-.062.004-.093.004z"/><path id="L" d="M301.342 4400.692c-.594 0-1.092-.227-1.125-.826-.053-.944-1.19-23.141 8.091-34.8.392-.488 1.103-.506 1.586-.12.486.39.568 1.128.18 1.615-8.754 10.99-7.618 32.942-7.607 33.164.036.623-.44.967-1.06.967h-.065z"/><path id="N" d="M308.806 4367.03c-1.534 0-2.855-.585-3.846-1.71-4.069-4.621-1.62-17.317-1.328-18.75.128-.61.733-1 1.33-.878.61.124 1.004.72.88 1.33-.732 3.588-2.014 13.604.81 16.807.628.716 1.37 1.02 2.456.934 4.093-.306 4.634-5.352 5.042-13.624.222-4.496.449-9.145 1.713-13.144l.077-.25c4.32-13.87 14.46-23.92 28.553-28.3 22.34-6.943 40.709 16.271 40.892 16.507.25.356 5.33 7.707 5.33 14.269a1.127 1.127 0 1 1-2.255 0c0-5.86-4.841-12.861-4.89-12.932-.136-.175-17.58-22.163-38.408-15.69-13.364 4.152-22.979 13.676-27.07 26.816l-.08.26c-1.174 3.72-1.396 8.221-1.61 12.574-.387 7.86-.753 15.284-7.127 15.764a6.789 6.789 0 0 1-.469.018z"/><path id="P" d="M381.71 4324.863c.434-6.462-1.352-11.78-5.31-15.58-10.04-9.64-30.822-7.574-31.026-7.552-.61.064-1.174-.407-1.242-1.028a1.142 1.142 0 0 1 1-1.256c.898-.1 22.038-2.257 32.83 8.103 4.462 4.283 6.478 10.309 5.998 17.467-.04.596-2.292.468-2.25-.154z"/><path id="R" d="M307.494 4339.227a1.11 1.11 0 0 1-.46-.1 1.125 1.125 0 0 1-.568-1.489c.537-1.2 13.344-29.443 27.745-32.048 4.12-.748 7.968.647 11.418 4.14a1.128 1.128 0 0 1-1.603 1.585c-2.937-2.974-6.01-4.126-9.414-3.506-13.243 2.395-25.962 30.468-26.09 30.752a1.126 1.126 0 0 1-1.028.666z"/><path id="T" d="M387.465 4393.107a1.127 1.127 0 0 1-.847-1.871c5.92-6.737 9.707-18.57 9.744-18.688 9.868-38.328-5.2-57.1-12.444-66.12-.585-.73-1.12-1.397-1.59-2.006-5.323-6.924-30.54-20.659-60.43-1.227-28.838 18.743-28.975 75.285-28.973 75.851.003.623-.5 1.355-1.122 1.355h-.005c-.62 0-1.125-.725-1.127-1.346 0-.145-.011-14.746 3.63-31.407 3.384-15.472 10.705-36.108 26.368-46.288 16.567-10.768 31.171-11.286 40.51-9.793 11.09 1.766 19.512 7.04 22.938 11.495.46.598.986 1.246 1.56 1.961 7.47 9.307 23.02 28.669 12.852 68.15-.176.56-3.98 12.455-10.216 19.553a1.128 1.128 0 0 1-.848.381z"/><path id="V" d="M285.01 4352.167a1.128 1.128 0 0 1-1.125-1.23c.042-.445 4.545-44.764 43.895-64.334a1.127 1.127 0 0 1 1.004 2.019c-38.237 19.016-42.613 62.088-42.653 62.521a1.13 1.13 0 0 1-1.12 1.024z"/><path id="X" d="M428.83 4364.045a1.126 1.126 0 0 1-1.099-1.378c.016-.152.516-5.489-10.977-34.118-6.559-16.337-11.715-19.709-16.7-22.97-4.121-2.695-8.381-5.482-12.972-15.15-9.504-20.024-30.447-17.639-30.658-17.607a88.042 88.042 0 0 0-1.937-.021c-54.915 0-69.73 51.494-69.875 52.02a1.127 1.127 0 1 1-2.175-.597c.152-.549 15.702-54.866 73.87-53.648.064-.02 22.614-2.598 32.814 18.887 4.317 9.094 8.13 11.589 12.166 14.229 5.28 3.452 10.736 7.022 17.559 24.018 11.88 29.593 11.2 34.946 11.083 35.459a1.128 1.128 0 0 1-1.099.876z"/><path id="Z" d="M385.061 4291.552c-7.162 0-10.975-2.454-11.156-2.573-16.297-12.222-38.357-2.35-38.578-2.25a1.134 1.134 0 0 1-1.494-.556 1.129 1.129 0 0 1 .557-1.494c.948-.436 23.507-10.526 40.812 2.457.007.001 4.49 2.815 12.805 2.018a1.127 1.127 0 1 1 .216 2.244 33.277 33.277 0 0 1-3.162.154z"/><linearGradient id="a" x1="340.21" x2="340.21" y1="4330.15" y2="4416.23" gradientUnits="userSpaceOnUse"><stop offset="0" stop-color="#5aa8ff"/><stop offset="1" stop-color="#e21a32"/></linearGradient><linearGradient id="c" x1="350.93" x2="350.93" y1="4339.54" y2="4362.64" gradientUnits="userSpaceOnUse"><stop offset="0" stop-color="#5aa8ff"/><stop offset="1" stop-color="#e21a32"/></linearGradient><linearGradient id="e" x1="354.92" x2="354.92" y1="4345.5" y2="4376.35" gradientUnits="userSpaceOnUse"><stop offset="0" stop-color="#5aa8ff"/><stop offset="1" stop-color="#e21a32"/></linearGradient><linearGradient id="g" x1="337.41" x2="337.41" y1="4376.89" y2="4424.29" gradientUnits="userSpaceOnUse"><stop offset="0" stop-color="#5aa8ff"/><stop offset="1" stop-color="#e21a32"/></linearGradient><linearGradient id="i" x1="346.85" x2="346.85" y1="4384.7" y2="4433.41" gradientUnits="userSpaceOnUse"><stop offset="0" stop-color="#5aa8ff"/><stop offset="1" stop-color="#e21a32"/></linearGradient><linearGradient id="k" x1="342.88" x2="342.88" y1="4318.79" y2="4438.08" gradientUnits="userSpaceOnUse"><stop offset="0" stop-color="#5aa8ff"/><stop offset="1" stop-color="#e21a32"/></linearGradient><linearGradient id="m" x1="361.96" x2="361.96" y1="4391.27" y2="4442.32" gradientUnits="userSpaceOnUse"><stop offset="0" stop-color="#5aa8ff"/><stop offset="1" stop-color="#e21a32"/></linearGradient><linearGradient id="o" x1="376.87" x2="376.87" y1="4346.58" y2="4445.5" gradientUnits="userSpaceOnUse"><stop offset="0" stop-color="#5aa8ff"/><stop offset="1" stop-color="#e21a32"/></linearGradient><linearGradient id="q" x1="393.34" x2="393.34" y1="4314.49" y2="4444.86" gradientUnits="userSpaceOnUse"><stop offset="0" stop-color="#5aa8ff"/><stop offset="1" stop-color="#e21a32"/></linearGradient><linearGradient id="s" x1="401.72" x2="401.72" y1="4376" y2="4426.73" gradientUnits="userSpaceOnUse"><stop offset="0" stop-color="#5aa8ff"/><stop offset="1" stop-color="#e21a32"/></linearGradient><linearGradient id="u" x1="405.61" x2="405.61" y1="4406.76" y2="4436.8" gradientUnits="userSpaceOnUse"><stop offset="0" stop-color="#5aa8ff"/><stop offset="1" stop-color="#e21a32"/></linearGradient><linearGradient id="w" x1="420.7" x2="420.7" y1="4341.62" y2="4398.44" gradientUnits="userSpaceOnUse"><stop offset="0" stop-color="#5aa8ff"/><stop offset="1" stop-color="#e21a32"/></linearGradient><linearGradient id="y" x1="406.24" x2="406.24" y1="4282.03" y2="4315.68" gradientUnits="userSpaceOnUse"><stop offset="0" stop-color="#5aa8ff"/><stop offset="1" stop-color="#e21a32"/></linearGradient><linearGradient id="A" x1="358.63" x2="358.63" y1="4253" y2="4259.68" gradientUnits="userSpaceOnUse"><stop offset="0" stop-color="#5aa8ff"/><stop offset="1" stop-color="#e21a32"/></linearGradient><linearGradient id="C" x1="313.87" x2="313.87" y1="4259.54" y2="4271.77" gradientUnits="userSpaceOnUse"><stop offset="0" stop-color="#5aa8ff"/><stop offset="1" stop-color="#e21a32"/></linearGradient><linearGradient id="E" x1="343.46" x2="343.46" y1="4262.51" y2="4290.01" gradientUnits="userSpaceOnUse"><stop offset="0" stop-color="#5aa8ff"/><stop offset="1" stop-color="#e21a32"/></linearGradient><linearGradient id="G" x1="339.32" x2="339.32" y1="4255.58" y2="4264.56" gradientUnits="userSpaceOnUse"><stop offset="0" stop-color="#5aa8ff"/><stop offset="1" stop-color="#e21a32"/></linearGradient><linearGradient id="I" x1="315.98" x2="315.98" y1="4368.58" y2="4390.77" gradientUnits="userSpaceOnUse"><stop offset="0" stop-color="#5aa8ff"/><stop offset="1" stop-color="#e21a32"/></linearGradient><linearGradient id="K" x1="305.24" x2="305.24" y1="4364.68" y2="4400.69" gradientUnits="userSpaceOnUse"><stop offset="0" stop-color="#5aa8ff"/><stop offset="1" stop-color="#e21a32"/></linearGradient><linearGradient id="M" x1="346.68" x2="346.68" y1="4308.15" y2="4367.03" gradientUnits="userSpaceOnUse"><stop offset="0" stop-color="#5aa8ff"/><stop offset="1" stop-color="#e21a32"/></linearGradient><linearGradient id="O" x1="364.08" x2="364.08" y1="4299.19" y2="4325.4" gradientUnits="userSpaceOnUse"><stop offset="0" stop-color="#5aa8ff"/><stop offset="1" stop-color="#e21a32"/></linearGradient><linearGradient id="Q" x1="326.17" x2="326.17" y1="4305.39" y2="4339.23" gradientUnits="userSpaceOnUse"><stop offset="0" stop-color="#5aa8ff"/><stop offset="1" stop-color="#e21a32"/></linearGradient><linearGradient id="S" x1="346.28" x2="346.28" y1="4290.95" y2="4393.11" gradientUnits="userSpaceOnUse"><stop offset="0" stop-color="#5aa8ff"/><stop offset="1" stop-color="#e21a32"/></linearGradient><linearGradient id="U" x1="306.65" x2="306.65" y1="4286.48" y2="4352.17" gradientUnits="userSpaceOnUse"><stop offset="0" stop-color="#5aa8ff"/><stop offset="1" stop-color="#e21a32"/></linearGradient><linearGradient id="W" x1="356.19" x2="356.19" y1="4270.47" y2="4364.04" gradientUnits="userSpaceOnUse"><stop offset="0" stop-color="#5aa8ff"/><stop offset="1" stop-color="#e21a32"/></linearGradient><linearGradient id="Y" x1="361.49" x2="361.49" y1="4280.53" y2="4291.55" gradientUnits="userSpaceOnUse"><stop offset="0" stop-color="#5aa8ff"/><stop offset="1" stop-color="#e21a32"/></linearGradient></defs><use fill="url(#a)" xlink:href="#b" transform="translate(-282 -4253)"/><use fill="url(#c)" xlink:href="#d" transform="translate(-282 -4253)"/><use fill="url(#e)" xlink:href="#f" transform="translate(-282 -4253)"/><use fill="url(#g)" xlink:href="#h" transform="translate(-282 -4253)"/><use fill="url(#i)" xlink:href="#j" transform="translate(-282 -4253)"/><use fill="url(#k)" xlink:href="#l" transform="translate(-282 -4253)"/><use fill="url(#m)" xlink:href="#n" transform="translate(-282 -4253)"/><use fill="url(#o)" xlink:href="#p" transform="translate(-282 -4253)"/><use fill="url(#q)" xlink:href="#r" transform="translate(-282 -4253)"/><use fill="url(#s)" xlink:href="#t" transform="translate(-282 -4253)"/><use fill="url(#u)" xlink:href="#v" transform="translate(-282 -4253)"/><use fill="url(#w)" xlink:href="#x" transform="translate(-282 -4253)"/><use fill="url(#y)" xlink:href="#z" transform="translate(-282 -4253)"/><use fill="url(#A)" xlink:href="#B" transform="translate(-282 -4253)"/><use fill="url(#C)" xlink:href="#D" transform="translate(-282 -4253)"/><use fill="url(#E)" xlink:href="#F" transform="translate(-282 -4253)"/><use fill="url(#G)" xlink:href="#H" transform="translate(-282 -4253)"/><use fill="url(#I)" xlink:href="#J" transform="translate(-282 -4253)"/><use fill="url(#K)" xlink:href="#L" transform="translate(-282 -4253)"/><use fill="url(#M)" xlink:href="#N" transform="translate(-282 -4253)"/><use fill="url(#O)" xlink:href="#P" transform="translate(-282 -4253)"/><use fill="url(#Q)" xlink:href="#R" transform="translate(-282 -4253)"/><use fill="url(#S)" xlink:href="#T" transform="translate(-282 -4253)"/><use fill="url(#U)" xlink:href="#V" transform="translate(-282 -4253)"/><use fill="url(#W)" xlink:href="#X" transform="translate(-282 -4253)"/><use fill="url(#Y)" xlink:href="#Z" transform="translate(-282 -4253)"/></svg>